<?xml version="1.0" encoding="UTF-8" standalone="no"?>
<!DOCTYPE svg PUBLIC "-//W3C//DTD SVG 1.1//EN"
 "http://www.w3.org/Graphics/SVG/1.1/DTD/svg11.dtd">
<!-- Generated by graphviz version 2.43.0 (0)
 -->
<!-- Title: include/app_ui.h Pages: 1 -->
<svg width="1683pt" height="140pt"
 viewBox="0.00 0.00 1683.00 140.00" xmlns="http://www.w3.org/2000/svg" xmlns:xlink="http://www.w3.org/1999/xlink">
<g id="graph0" class="graph" transform="scale(1 1) rotate(0) translate(4 136)">
<title>include/app_ui.h</title>
<polygon fill="white" stroke="transparent" points="-4,4 -4,-136 1679,-136 1679,4 -4,4"/>
<!-- Node1 -->
<g id="node1" class="node">
<title>Node1</title>
<g id="a_node1"><a xlink:title="UI rendering module for the application.">
<polygon fill="#bfbfbf" stroke="black" points="413,-112.5 413,-131.5 509,-131.5 509,-112.5 413,-112.5"/>
<text text-anchor="middle" x="461" y="-119.5" font-family="Helvetica,sans-Serif" font-size="10.00">include/app_ui.h</text>
</a>
</g>
</g>
<!-- Node2 -->
<g id="node2" class="node">
<title>Node2</title>
<g id="a_node2"><a xlink:href="app_8h.html" target="_top" xlink:title=" ">
<polygon fill="white" stroke="black" points="598,-56.5 598,-75.5 680,-75.5 680,-56.5 598,-56.5"/>
<text text-anchor="middle" x="639" y="-63.5" font-family="Helvetica,sans-Serif" font-size="10.00">include/app.h</text>
</a>
</g>
</g>
<!-- Node1&#45;&gt;Node2 -->
<g id="edge1" class="edge">
<title>Node1&#45;&gt;Node2</title>
<path fill="none" stroke="midnightblue" d="M499.12,-109.44C532.68,-99.26 580.77,-84.66 610.93,-75.52"/>
<polygon fill="midnightblue" stroke="midnightblue" points="497.76,-106.19 489.2,-112.44 499.79,-112.89 497.76,-106.19"/>
</g>
<!-- Node3 -->
<g id="node3" class="node">
<title>Node3</title>
<g id="a_node3"><a xlink:href="app_8c.html" target="_top" xlink:title=" ">
<polygon fill="white" stroke="black" points="0,-0.5 0,-19.5 60,-19.5 60,-0.5 0,-0.5"/>
<text text-anchor="middle" x="30" y="-7.5" font-family="Helvetica,sans-Serif" font-size="10.00">src/app.c</text>
</a>
</g>
</g>
<!-- Node1&#45;&gt;Node3 -->
<g id="edge16" class="edge">
<title>Node1&#45;&gt;Node3</title>
<path fill="none" stroke="midnightblue" d="M407.32,-110.47C365.18,-101.94 305.11,-89.21 253,-76 181.66,-57.91 98.7,-32.58 56.95,-19.52"/>
<polygon fill="midnightblue" stroke="midnightblue" points="406.87,-113.95 417.37,-112.49 408.26,-107.09 406.87,-113.95"/>
</g>
<!-- Node7 -->
<g id="node7" class="node">
<title>Node7</title>
<g id="a_node7"><a xlink:href="app__ui_8c.html" target="_top" xlink:title=" ">
<polygon fill="white" stroke="black" points="78,-0.5 78,-19.5 152,-19.5 152,-0.5 78,-0.5"/>
<text text-anchor="middle" x="115" y="-7.5" font-family="Helvetica,sans-Serif" font-size="10.00">src/app_ui.c</text>
</a>
</g>
</g>
<!-- Node1&#45;&gt;Node7 -->
<g id="edge18" class="edge">
<title>Node1&#45;&gt;Node7</title>
<path fill="none" stroke="midnightblue" d="M424.44,-109.38C354.62,-87.18 203.74,-39.21 142.08,-19.61"/>
<polygon fill="midnightblue" stroke="midnightblue" points="423.55,-112.77 434.14,-112.46 425.67,-106.09 423.55,-112.77"/>
</g>
<!-- Node17 -->
<g id="node17" class="node">
<title>Node17</title>
<g id="a_node17"><a xlink:href="app__input_8c.html" target="_top" xlink:title=" ">
<polygon fill="white" stroke="black" points="698,-56.5 698,-75.5 788,-75.5 788,-56.5 698,-56.5"/>
<text text-anchor="middle" x="743" y="-63.5" font-family="Helvetica,sans-Serif" font-size="10.00">src/app_input.c</text>
</a>
</g>
</g>
<!-- Node1&#45;&gt;Node17 -->
<g id="edge17" class="edge">
<title>Node1&#45;&gt;Node17</title>
<path fill="none" stroke="midnightblue" d="M515.64,-110.54C568.94,-100.33 649,-85 698.53,-75.52"/>
<polygon fill="midnightblue" stroke="midnightblue" points="514.85,-107.13 505.68,-112.44 516.16,-114 514.85,-107.13"/>
</g>
<!-- Node2&#45;&gt;Node3 -->
<g id="edge2" class="edge">
<title>Node2&#45;&gt;Node3</title>
<path fill="none" stroke="midnightblue" d="M587.84,-63.5C487.7,-60 258.99,-49.26 69,-20 66.12,-19.56 63.13,-19.02 60.15,-18.42"/>
<polygon fill="midnightblue" stroke="midnightblue" points="587.87,-67 597.98,-63.84 588.11,-60.01 587.87,-67"/>
</g>
<!-- Node4 -->
<g id="node4" class="node">
<title>Node4</title>
<g id="a_node4"><a xlink:href="app__input__state_8c.html" target="_top" xlink:title=" ">
<polygon fill="white" stroke="black" points="900,-0.5 900,-19.5 1020,-19.5 1020,-0.5 900,-0.5"/>
<text text-anchor="middle" x="960" y="-7.5" font-family="Helvetica,sans-Serif" font-size="10.00">src/app_input_state.c</text>
</a>
</g>
</g>
<!-- Node2&#45;&gt;Node4 -->
<g id="edge3" class="edge">
<title>Node2&#45;&gt;Node4</title>
<path fill="none" stroke="midnightblue" d="M690.13,-55.82C771.72,-41.75 855.02,-28.05 907.51,-19.5"/>
<polygon fill="midnightblue" stroke="midnightblue" points="689.45,-52.39 680.19,-57.54 690.64,-59.29 689.45,-52.39"/>
</g>
<!-- Node5 -->
<g id="node5" class="node">
<title>Node5</title>
<g id="a_node5"><a xlink:href="app__profiling_8c.html" target="_top" xlink:title=" ">
<polygon fill="white" stroke="black" points="1038.5,-0.5 1038.5,-19.5 1143.5,-19.5 1143.5,-0.5 1038.5,-0.5"/>
<text text-anchor="middle" x="1091" y="-7.5" font-family="Helvetica,sans-Serif" font-size="10.00">src/app_profiling.c</text>
</a>
</g>
</g>
<!-- Node2&#45;&gt;Node5 -->
<g id="edge4" class="edge">
<title>Node2&#45;&gt;Node5</title>
<path fill="none" stroke="midnightblue" d="M690.26,-55.91C841.15,-34.7 881.47,-38.51 1029,-20 1032.02,-19.62 1035.12,-19.22 1038.25,-18.8"/>
<polygon fill="midnightblue" stroke="midnightblue" points="689.57,-52.48 680.16,-57.35 690.56,-59.41 689.57,-52.48"/>
</g>
<!-- Node6 -->
<g id="node6" class="node">
<title>Node6</title>
<g id="a_node6"><a xlink:href="app__subsystem_8c.html" target="_top" xlink:title=" ">
<polygon fill="white" stroke="black" points="1161.5,-0.5 1161.5,-19.5 1280.5,-19.5 1280.5,-0.5 1161.5,-0.5"/>
<text text-anchor="middle" x="1221" y="-7.5" font-family="Helvetica,sans-Serif" font-size="10.00">src/app_subsystem.c</text>
</a>
</g>
</g>
<!-- Node2&#45;&gt;Node6 -->
<g id="edge5" class="edge">
<title>Node2&#45;&gt;Node6</title>
<path fill="none" stroke="midnightblue" d="M690.37,-55.95C895.91,-30.02 950.6,-41.23 1153,-20 1155.72,-19.71 1158.51,-19.41 1161.32,-19.09"/>
<polygon fill="midnightblue" stroke="midnightblue" points="689.63,-52.52 680.15,-57.25 690.51,-59.46 689.63,-52.52"/>
</g>
<!-- Node2&#45;&gt;Node7 -->
<g id="edge6" class="edge">
<title>Node2&#45;&gt;Node7</title>
<path fill="none" stroke="midnightblue" d="M587.7,-61.85C499.97,-56.09 315.58,-42.34 161,-20 158.1,-19.58 155.11,-19.1 152.1,-18.59"/>
<polygon fill="midnightblue" stroke="midnightblue" points="587.71,-65.36 597.92,-62.51 588.16,-58.37 587.71,-65.36"/>
</g>
<!-- Node8 -->
<g id="node8" class="node">
<title>Node8</title>
<g id="a_node8"><a xlink:href="app__window_8c.html" target="_top" xlink:title=" ">
<polygon fill="white" stroke="black" points="1299,-0.5 1299,-19.5 1401,-19.5 1401,-0.5 1299,-0.5"/>
<text text-anchor="middle" x="1350" y="-7.5" font-family="Helvetica,sans-Serif" font-size="10.00">src/app_window.c</text>
</a>
</g>
</g>
<!-- Node2&#45;&gt;Node8 -->
<g id="edge7" class="edge">
<title>Node2&#45;&gt;Node8</title>
<path fill="none" stroke="midnightblue" d="M690.11,-56.01C956.42,-24.81 1027.11,-47.53 1290,-20 1292.93,-19.69 1295.94,-19.35 1298.98,-18.97"/>
<polygon fill="midnightblue" stroke="midnightblue" points="689.66,-52.54 680.14,-57.2 690.49,-59.49 689.66,-52.54"/>
</g>
<!-- Node9 -->
<g id="node9" class="node">
<title>Node9</title>
<g id="a_node9"><a xlink:href="async__coordinator_8c.html" target="_top" xlink:title=" ">
<polygon fill="white" stroke="black" points="1419.5,-0.5 1419.5,-19.5 1550.5,-19.5 1550.5,-0.5 1419.5,-0.5"/>
<text text-anchor="middle" x="1485" y="-7.5" font-family="Helvetica,sans-Serif" font-size="10.00">src/async_coordinator.c</text>
</a>
</g>
</g>
<!-- Node2&#45;&gt;Node9 -->
<g id="edge8" class="edge">
<title>Node2&#45;&gt;Node9</title>
<path fill="none" stroke="midnightblue" d="M690.14,-56.03C1009.48,-20.07 1093.58,-46.85 1410,-20 1413.01,-19.74 1416.08,-19.46 1419.18,-19.16"/>
<polygon fill="midnightblue" stroke="midnightblue" points="689.68,-52.56 680.14,-57.16 690.47,-59.51 689.68,-52.56"/>
</g>
<!-- Node10 -->
<g id="node10" class="node">
<title>Node10</title>
<g id="a_node10"><a xlink:href="async__loader_8c.html" target="_top" xlink:title=" ">
<polygon fill="white" stroke="black" points="1569,-0.5 1569,-19.5 1675,-19.5 1675,-0.5 1569,-0.5"/>
<text text-anchor="middle" x="1622" y="-7.5" font-family="Helvetica,sans-Serif" font-size="10.00">src/async_loader.c</text>
</a>
</g>
</g>
<!-- Node2&#45;&gt;Node10 -->
<g id="edge9" class="edge">
<title>Node2&#45;&gt;Node10</title>
<path fill="none" stroke="midnightblue" d="M690.17,-56.04C1075.84,-14.3 1177.52,-55.57 1560,-20 1562.92,-19.73 1565.92,-19.41 1568.94,-19.07"/>
<polygon fill="midnightblue" stroke="midnightblue" points="689.7,-52.57 680.14,-57.14 690.46,-59.53 689.7,-52.57"/>
</g>
<!-- Node11 -->
<g id="node11" class="node">
<title>Node11</title>
<g id="a_node11"><a xlink:href="env__manager_8c.html" target="_top" xlink:title=" ">
<polygon fill="white" stroke="black" points="170,-0.5 170,-19.5 278,-19.5 278,-0.5 170,-0.5"/>
<text text-anchor="middle" x="224" y="-7.5" font-family="Helvetica,sans-Serif" font-size="10.00">src/env_manager.c</text>
</a>
</g>
</g>
<!-- Node2&#45;&gt;Node11 -->
<g id="edge10" class="edge">
<title>Node2&#45;&gt;Node11</title>
<path fill="none" stroke="midnightblue" d="M587.69,-58.68C519.12,-50.18 393.85,-34.46 287,-20 284.15,-19.61 281.24,-19.21 278.29,-18.81"/>
<polygon fill="midnightblue" stroke="midnightblue" points="587.43,-62.18 597.79,-59.93 588.29,-55.23 587.43,-62.18"/>
</g>
<!-- Node12 -->
<g id="node12" class="node">
<title>Node12</title>
<g id="a_node12"><a xlink:href="lum__histogram_8c.html" target="_top" xlink:title=" ">
<polygon fill="white" stroke="black" points="296,-0.5 296,-19.5 412,-19.5 412,-0.5 296,-0.5"/>
<text text-anchor="middle" x="354" y="-7.5" font-family="Helvetica,sans-Serif" font-size="10.00">src/lum_histogram.c</text>
</a>
</g>
</g>
<!-- Node2&#45;&gt;Node12 -->
<g id="edge11" class="edge">
<title>Node2&#45;&gt;Node12</title>
<path fill="none" stroke="midnightblue" d="M587.85,-55.31C534.05,-45.11 450.21,-29.23 398.89,-19.5"/>
<polygon fill="midnightblue" stroke="midnightblue" points="587.39,-58.78 597.86,-57.21 588.69,-51.91 587.39,-58.78"/>
</g>
<!-- Node13 -->
<g id="node13" class="node">
<title>Node13</title>
<g id="a_node13"><a xlink:href="main_8c.html" target="_top" xlink:title=" ">
<polygon fill="white" stroke="black" points="430.5,-0.5 430.5,-19.5 497.5,-19.5 497.5,-0.5 430.5,-0.5"/>
<text text-anchor="middle" x="464" y="-7.5" font-family="Helvetica,sans-Serif" font-size="10.00">src/main.c</text>
</a>
</g>
</g>
<!-- Node2&#45;&gt;Node13 -->
<g id="edge12" class="edge">
<title>Node2&#45;&gt;Node13</title>
<path fill="none" stroke="midnightblue" d="M601.53,-53.44C568.53,-43.26 521.24,-28.66 491.6,-19.52"/>
<polygon fill="midnightblue" stroke="midnightblue" points="600.68,-56.84 611.27,-56.44 602.75,-50.15 600.68,-56.84"/>
</g>
<!-- Node14 -->
<g id="node14" class="node">
<title>Node14</title>
<g id="a_node14"><a xlink:href="postprocess__init_8c.html" target="_top" xlink:title=" ">
<polygon fill="white" stroke="black" points="516,-0.5 516,-19.5 638,-19.5 638,-0.5 516,-0.5"/>
<text text-anchor="middle" x="577" y="-7.5" font-family="Helvetica,sans-Serif" font-size="10.00">src/postprocess_init.c</text>
</a>
</g>
</g>
<!-- Node2&#45;&gt;Node14 -->
<g id="edge13" class="edge">
<title>Node2&#45;&gt;Node14</title>
<path fill="none" stroke="midnightblue" d="M621.25,-49.54C610.19,-39.91 596.37,-27.87 587.14,-19.83"/>
<polygon fill="midnightblue" stroke="midnightblue" points="619.2,-52.4 629.04,-56.32 623.8,-47.12 619.2,-52.4"/>
</g>
<!-- Node15 -->
<g id="node15" class="node">
<title>Node15</title>
<g id="a_node15"><a xlink:href="scene__init_8c.html" target="_top" xlink:title=" ">
<polygon fill="white" stroke="black" points="656,-0.5 656,-19.5 748,-19.5 748,-0.5 656,-0.5"/>
<text text-anchor="middle" x="702" y="-7.5" font-family="Helvetica,sans-Serif" font-size="10.00">src/scene_init.c</text>
</a>
</g>
</g>
<!-- Node2&#45;&gt;Node15 -->
<g id="edge14" class="edge">
<title>Node2&#45;&gt;Node15</title>
<path fill="none" stroke="midnightblue" d="M657.04,-49.54C668.27,-39.91 682.32,-27.87 691.69,-19.83"/>
<polygon fill="midnightblue" stroke="midnightblue" points="654.44,-47.16 649.12,-56.32 658.99,-52.47 654.44,-47.16"/>
</g>
<!-- Node16 -->
<g id="node16" class="node">
<title>Node16</title>
<g id="a_node16"><a xlink:href="tracy__manager_8c.html" target="_top" xlink:title=" ">
<polygon fill="white" stroke="black" points="766.5,-0.5 766.5,-19.5 881.5,-19.5 881.5,-0.5 766.5,-0.5"/>
<text text-anchor="middle" x="824" y="-7.5" font-family="Helvetica,sans-Serif" font-size="10.00">src/tracy_manager.c</text>
</a>
</g>
</g>
<!-- Node2&#45;&gt;Node16 -->
<g id="edge15" class="edge">
<title>Node2&#45;&gt;Node16</title>
<path fill="none" stroke="midnightblue" d="M678.17,-53.57C713.07,-43.38 763.35,-28.7 794.82,-19.52"/>
<polygon fill="midnightblue" stroke="midnightblue" points="676.93,-50.28 668.31,-56.44 678.89,-57 676.93,-50.28"/>
</g>
</g>
</svg>
