<?xml version="1.0" encoding="UTF-8" standalone="no"?>
<!DOCTYPE svg PUBLIC "-//W3C//DTD SVG 1.1//EN"
 "http://www.w3.org/Graphics/SVG/1.1/DTD/svg11.dtd">
<!-- Generated by graphviz version 2.43.0 (0)
 -->
<!-- Title: src/main.c Pages: 1 -->
<!--zoomable 308 -->
<svg id="main" version="1.1" xmlns="http://www.w3.org/2000/svg" xmlns:xlink="http://www.w3.org/1999/xlink" xml:space="preserve" onload="init(evt)">
<style type="text/css"><![CDATA[
.edge:hover path { stroke: red; }
.edge:hover polygon { stroke: red; fill: red; }
]]></style>
<script type="text/javascript"><![CDATA[
var edges = document.getElementsByTagName('g');
if (edges && edges.length) {
  for (var i=0;i<edges.length;i++) {
    if (edges[i].id.substr(0,4)=='edge') {
      edges[i].setAttribute('class','edge');
    }
  }
}
]]></script>
        <defs>
                <circle id="rim" cx="0" cy="0" r="7"/>
                <circle id="rim2" cx="0" cy="0" r="3.5"/>
                <g id="zoomPlus">
                        <use xlink:href="#rim" fill="#404040">
                                <set attributeName="fill" to="#808080" begin="zoomplus.mouseover" end="zoomplus.mouseout"/>
                        </use>
                        <path d="M-4,0h8M0,-4v8" fill="none" stroke="white" stroke-width="1.5" pointer-events="none"/>
                </g>
                <g id="zoomMin">
                        <use xlink:href="#rim" fill="#404040">
                                <set attributeName="fill" to="#808080" begin="zoomminus.mouseover" end="zoomminus.mouseout"/>
                        </use>
                        <path d="M-4,0h8" fill="none" stroke="white" stroke-width="1.5" pointer-events="none"/>
                </g>
                <g id="dirArrow">
                        <path fill="none" stroke="white" stroke-width="1.5" d="M0,-3.0v7 M-2.5,-0.5L0,-3.0L2.5,-0.5"/>
                </g>
               <g id="resetDef">
                       <use xlink:href="#rim2" fill="#404040">
                               <set attributeName="fill" to="#808080" begin="reset.mouseover" end="reset.mouseout"/>
                       </use>
               </g>
        </defs>

<script type="text/javascript">
var viewWidth = 692;
var viewHeight = 308;
var sectionId = 'dynsection-0';
</script>
<script xlink:href="svgpan.js"/>
<svg id="graph" class="graph">
<g id="viewport">
<title>src/main.c</title>
<polygon fill="white" stroke="transparent" points="-4,4 -4,-304 687.5,-304 687.5,4 -4,4"/>
<!-- Node1 -->
<g id="node1" class="node">
<title>Node1</title>
<g id="a_node1"><a xlink:title=" ">
<polygon fill="#bfbfbf" stroke="black" points="235.5,-280.5 235.5,-299.5 302.5,-299.5 302.5,-280.5 235.5,-280.5"/>
<text text-anchor="middle" x="269" y="-287.5" font-family="Helvetica,sans-Serif" font-size="10.00">src/main.c</text>
</a>
</g>
</g>
<!-- Node2 -->
<g id="node2" class="node">
<title>Node2</title>
<g id="a_node2"><a xlink:href="main_8h.html" target="_top" xlink:title="Entry point configuration and global constants.">
<polygon fill="white" stroke="black" points="0,-224.5 0,-243.5 50,-243.5 50,-224.5 0,-224.5"/>
<text text-anchor="middle" x="25" y="-231.5" font-family="Helvetica,sans-Serif" font-size="10.00">main.h</text>
</a>
</g>
</g>
<!-- Node1&#45;&gt;Node2 -->
<g id="edge1" class="edge">
<title>Node1&#45;&gt;Node2</title>
<path fill="none" stroke="midnightblue" d="M235.24,-281.71C194.59,-272.89 124.25,-257.57 64,-244 62.74,-243.72 61.46,-243.43 60.17,-243.13"/>
<polygon fill="midnightblue" stroke="midnightblue" points="60.69,-239.66 50.17,-240.85 59.14,-246.49 60.69,-239.66"/>
</g>
<!-- Node3 -->
<g id="node3" class="node">
<title>Node3</title>
<g id="a_node3"><a xlink:href="app_8h.html" target="_top" xlink:title=" ">
<polygon fill="white" stroke="black" points="494,-224.5 494,-243.5 538,-243.5 538,-224.5 494,-224.5"/>
<text text-anchor="middle" x="516" y="-231.5" font-family="Helvetica,sans-Serif" font-size="10.00">app.h</text>
</a>
</g>
</g>
<!-- Node1&#45;&gt;Node3 -->
<g id="edge2" class="edge">
<title>Node1&#45;&gt;Node3</title>
<path fill="none" stroke="midnightblue" d="M302.86,-282.79C343.62,-275.12 414.35,-261.24 483.9,-244.13"/>
<polygon fill="midnightblue" stroke="midnightblue" points="484.84,-247.5 493.7,-241.7 483.16,-240.71 484.84,-247.5"/>
</g>
<!-- Node6 -->
<g id="node6" class="node">
<title>Node6</title>
<g id="a_node6"><a xlink:href="gl__common_8h.html" target="_top" xlink:title="Common OpenGL definitions, RAII helpers, and utilities.">
<polygon fill="white" stroke="black" points="338.5,-56.5 338.5,-75.5 421.5,-75.5 421.5,-56.5 338.5,-56.5"/>
<text text-anchor="middle" x="380" y="-63.5" font-family="Helvetica,sans-Serif" font-size="10.00">gl_common.h</text>
</a>
</g>
</g>
<!-- Node1&#45;&gt;Node6 -->
<g id="edge21" class="edge">
<title>Node1&#45;&gt;Node6</title>
<path fill="none" stroke="midnightblue" d="M235.12,-285.02C189.96,-278.93 113.74,-265.68 97,-244 91.57,-236.96 95.15,-232.69 97,-224 112.48,-151.37 152.46,-140.6 221,-112 256.36,-97.25 298.1,-85.64 329.93,-77.91"/>
<polygon fill="midnightblue" stroke="midnightblue" points="330.98,-81.26 339.9,-75.54 329.36,-74.45 330.98,-81.26"/>
</g>
<!-- Node16 -->
<g id="node16" class="node">
<title>Node16</title>
<g id="a_node16"><a xlink:href="cli_8h.html" target="_top" xlink:title="Command&#45;line interface and argument parsing.">
<polygon fill="white" stroke="black" points="222.5,-224.5 222.5,-243.5 259.5,-243.5 259.5,-224.5 222.5,-224.5"/>
<text text-anchor="middle" x="241" y="-231.5" font-family="Helvetica,sans-Serif" font-size="10.00">cli.h</text>
</a>
</g>
</g>
<!-- Node1&#45;&gt;Node16 -->
<g id="edge20" class="edge">
<title>Node1&#45;&gt;Node16</title>
<path fill="none" stroke="midnightblue" d="M264.38,-280.08C260.54,-272.69 254.98,-261.95 250.24,-252.81"/>
<polygon fill="midnightblue" stroke="midnightblue" points="253.25,-251.02 245.54,-243.75 247.03,-254.24 253.25,-251.02"/>
</g>
<!-- Node17 -->
<g id="node17" class="node">
<title>Node17</title>
<g id="a_node17"><a xlink:href="log_8h.html" target="_top" xlink:title="Thread&#45;safe logging utility with timestamps and severity levels.">
<polygon fill="white" stroke="black" points="277.5,-224.5 277.5,-243.5 318.5,-243.5 318.5,-224.5 277.5,-224.5"/>
<text text-anchor="middle" x="298" y="-231.5" font-family="Helvetica,sans-Serif" font-size="10.00">log.h</text>
</a>
</g>
</g>
<!-- Node1&#45;&gt;Node17 -->
<g id="edge22" class="edge">
<title>Node1&#45;&gt;Node17</title>
<path fill="none" stroke="midnightblue" d="M273.79,-280.08C277.76,-272.69 283.53,-261.95 288.43,-252.81"/>
<polygon fill="midnightblue" stroke="midnightblue" points="291.65,-254.22 293.3,-243.75 285.49,-250.91 291.65,-254.22"/>
</g>
<!-- Node18 -->
<g id="node18" class="node">
<title>Node18</title>
<g id="a_node18"><a xlink:title=" ">
<polygon fill="white" stroke="#bfbfbf" points="336.5,-224.5 336.5,-243.5 475.5,-243.5 475.5,-224.5 336.5,-224.5"/>
<text text-anchor="middle" x="406" y="-231.5" font-family="Helvetica,sans-Serif" font-size="10.00">platform/platform_utils.h</text>
</a>
</g>
</g>
<!-- Node1&#45;&gt;Node18 -->
<g id="edge23" class="edge">
<title>Node1&#45;&gt;Node18</title>
<path fill="none" stroke="midnightblue" d="M290.71,-280.44C313.35,-271.52 349.07,-257.44 374.75,-247.32"/>
<polygon fill="midnightblue" stroke="midnightblue" points="376.37,-250.44 384.39,-243.52 373.81,-243.93 376.37,-250.44"/>
</g>
<!-- Node19 -->
<g id="node19" class="node">
<title>Node19</title>
<g id="a_node19"><a xlink:href="tracy__manager_8h.html" target="_top" xlink:title=" ">
<polygon fill="white" stroke="black" points="106,-224.5 106,-243.5 204,-243.5 204,-224.5 106,-224.5"/>
<text text-anchor="middle" x="155" y="-231.5" font-family="Helvetica,sans-Serif" font-size="10.00">tracy_manager.h</text>
</a>
</g>
</g>
<!-- Node1&#45;&gt;Node19 -->
<g id="edge24" class="edge">
<title>Node1&#45;&gt;Node19</title>
<path fill="none" stroke="midnightblue" d="M250.94,-280.44C232.43,-271.68 203.42,-257.94 182.14,-247.86"/>
<polygon fill="midnightblue" stroke="midnightblue" points="183.51,-244.63 172.98,-243.52 180.52,-250.96 183.51,-244.63"/>
</g>
<!-- Node21 -->
<g id="node21" class="node">
<title>Node21</title>
<g id="a_node21"><a xlink:title=" ">
<polygon fill="white" stroke="#bfbfbf" points="556.5,-224.5 556.5,-243.5 609.5,-243.5 609.5,-224.5 556.5,-224.5"/>
<text text-anchor="middle" x="583" y="-231.5" font-family="Helvetica,sans-Serif" font-size="10.00">stdlib.h</text>
</a>
</g>
</g>
<!-- Node1&#45;&gt;Node21 -->
<g id="edge29" class="edge">
<title>Node1&#45;&gt;Node21</title>
<path fill="none" stroke="midnightblue" d="M302.54,-284.5C353.17,-277.52 452.28,-263.05 546.36,-243.98"/>
<polygon fill="midnightblue" stroke="midnightblue" points="547.23,-247.37 556.32,-241.94 545.82,-240.51 547.23,-247.37"/>
</g>
<!-- Node4 -->
<g id="node4" class="node">
<title>Node4</title>
<g id="a_node4"><a xlink:href="action__notifier_8h.html" target="_top" xlink:title="Temporary on&#45;screen notification system for user actions.">
<polygon fill="white" stroke="black" points="446.5,-168.5 446.5,-187.5 541.5,-187.5 541.5,-168.5 446.5,-168.5"/>
<text text-anchor="middle" x="494" y="-175.5" font-family="Helvetica,sans-Serif" font-size="10.00">action_notifier.h</text>
</a>
</g>
</g>
<!-- Node3&#45;&gt;Node4 -->
<g id="edge3" class="edge">
<title>Node3&#45;&gt;Node4</title>
<path fill="none" stroke="midnightblue" d="M512.37,-224.08C509.39,-216.77 505.07,-206.18 501.38,-197.1"/>
<polygon fill="midnightblue" stroke="midnightblue" points="504.58,-195.69 497.57,-187.75 498.1,-198.33 504.58,-195.69"/>
</g>
<!-- Node3&#45;&gt;Node6 -->
<g id="edge18" class="edge">
<title>Node3&#45;&gt;Node6</title>
<path fill="none" stroke="midnightblue" d="M493.71,-225.74C474.63,-218.61 447.41,-206.14 429,-188 400.18,-159.59 387.72,-111.94 382.83,-85.71"/>
<polygon fill="midnightblue" stroke="midnightblue" points="386.24,-84.89 381.12,-75.61 379.33,-86.05 386.24,-84.89"/>
</g>
<!-- Node11 -->
<g id="node11" class="node">
<title>Node11</title>
<g id="a_node11"><a xlink:title=" ">
<polygon fill="white" stroke="#bfbfbf" points="606.5,-56.5 606.5,-75.5 683.5,-75.5 683.5,-56.5 606.5,-56.5"/>
<text text-anchor="middle" x="645" y="-63.5" font-family="Helvetica,sans-Serif" font-size="10.00">cglm/cglm.h</text>
</a>
</g>
</g>
<!-- Node3&#45;&gt;Node11 -->
<g id="edge19" class="edge">
<title>Node3&#45;&gt;Node11</title>
<path fill="none" stroke="midnightblue" d="M538.43,-226.78C567.46,-218.26 615.68,-202.38 627,-188 650.34,-158.34 649.95,-111.55 647.53,-85.71"/>
<polygon fill="midnightblue" stroke="midnightblue" points="651,-85.27 646.39,-75.73 644.05,-86.07 651,-85.27"/>
</g>
<!-- Node12 -->
<g id="node12" class="node">
<title>Node12</title>
<g id="a_node12"><a xlink:href="app__ui_8h.html" target="_top" xlink:title="UI rendering module for the application.">
<polygon fill="white" stroke="black" points="560,-168.5 560,-187.5 618,-187.5 618,-168.5 560,-168.5"/>
<text text-anchor="middle" x="589" y="-175.5" font-family="Helvetica,sans-Serif" font-size="10.00">app_ui.h</text>
</a>
</g>
</g>
<!-- Node3&#45;&gt;Node12 -->
<g id="edge11" class="edge">
<title>Node3&#45;&gt;Node12</title>
<path fill="none" stroke="midnightblue" d="M527.73,-224.32C538.84,-216.11 555.74,-203.6 568.98,-193.81"/>
<polygon fill="midnightblue" stroke="midnightblue" points="571.1,-196.59 577.06,-187.83 566.94,-190.97 571.1,-196.59"/>
</g>
<!-- Node13 -->
<g id="node13" class="node">
<title>Node13</title>
<g id="a_node13"><a xlink:href="app__window_8h.html" target="_top" xlink:title=" ">
<polygon fill="white" stroke="black" points="408,-112.5 408,-131.5 494,-131.5 494,-112.5 408,-112.5"/>
<text text-anchor="middle" x="451" y="-119.5" font-family="Helvetica,sans-Serif" font-size="10.00">app_window.h</text>
</a>
</g>
</g>
<!-- Node3&#45;&gt;Node13 -->
<g id="edge14" class="edge">
<title>Node3&#45;&gt;Node13</title>
<path fill="none" stroke="midnightblue" d="M493.82,-227.15C474.98,-220.87 449.14,-208.88 437,-188 428.5,-173.38 434.31,-154.22 440.84,-140.49"/>
<polygon fill="midnightblue" stroke="midnightblue" points="443.96,-142.08 445.52,-131.6 437.76,-138.82 443.96,-142.08"/>
</g>
<!-- Node14 -->
<g id="node14" class="node">
<title>Node14</title>
<g id="a_node14"><a xlink:href="effect__benchmark_8h.html" target="_top" xlink:title="Automated A/B GPU cost measurement for individual postprocess effects.">
<polygon fill="white" stroke="black" points="238.5,-168.5 238.5,-187.5 351.5,-187.5 351.5,-168.5 238.5,-168.5"/>
<text text-anchor="middle" x="295" y="-175.5" font-family="Helvetica,sans-Serif" font-size="10.00">effect_benchmark.h</text>
</a>
</g>
</g>
<!-- Node3&#45;&gt;Node14 -->
<g id="edge16" class="edge">
<title>Node3&#45;&gt;Node14</title>
<path fill="none" stroke="midnightblue" d="M493.69,-226.38C490.77,-225.55 487.82,-224.74 485,-224 437.15,-211.4 382.1,-198.54 343.62,-189.81"/>
<polygon fill="midnightblue" stroke="midnightblue" points="344.24,-186.36 333.71,-187.57 342.7,-193.19 344.24,-186.36"/>
</g>
<!-- Node5 -->
<g id="node5" class="node">
<title>Node5</title>
<g id="a_node5"><a xlink:href="ui_8h.html" target="_top" xlink:title="Minimal immediate&#45;mode User Interface (UI) library.">
<polygon fill="white" stroke="black" points="512.5,-112.5 512.5,-131.5 547.5,-131.5 547.5,-112.5 512.5,-112.5"/>
<text text-anchor="middle" x="530" y="-119.5" font-family="Helvetica,sans-Serif" font-size="10.00">ui.h</text>
</a>
</g>
</g>
<!-- Node4&#45;&gt;Node5 -->
<g id="edge4" class="edge">
<title>Node4&#45;&gt;Node5</title>
<path fill="none" stroke="midnightblue" d="M499.94,-168.08C504.98,-160.53 512.34,-149.49 518.51,-140.23"/>
<polygon fill="midnightblue" stroke="midnightblue" points="521.53,-142.01 524.17,-131.75 515.71,-138.13 521.53,-142.01"/>
</g>
<!-- Node5&#45;&gt;Node6 -->
<g id="edge5" class="edge">
<title>Node5&#45;&gt;Node6</title>
<path fill="none" stroke="midnightblue" d="M512.5,-114.7C488.23,-105.96 443.89,-90 413.23,-78.96"/>
<polygon fill="midnightblue" stroke="midnightblue" points="414.39,-75.66 403.8,-75.57 412.02,-82.25 414.39,-75.66"/>
</g>
<!-- Node5&#45;&gt;Node11 -->
<g id="edge10" class="edge">
<title>Node5&#45;&gt;Node11</title>
<path fill="none" stroke="midnightblue" d="M547.97,-112.56C566.59,-103.82 595.95,-90.03 617.49,-79.92"/>
<polygon fill="midnightblue" stroke="midnightblue" points="619.21,-82.98 626.78,-75.56 616.24,-76.64 619.21,-82.98"/>
</g>
<!-- Node7 -->
<g id="node7" class="node">
<title>Node7</title>
<g id="a_node7"><a xlink:title=" ">
<polygon fill="white" stroke="#bfbfbf" points="512.5,-0.5 512.5,-19.5 583.5,-19.5 583.5,-0.5 512.5,-0.5"/>
<text text-anchor="middle" x="548" y="-7.5" font-family="Helvetica,sans-Serif" font-size="10.00">glad/glad.h</text>
</a>
</g>
</g>
<!-- Node6&#45;&gt;Node7 -->
<g id="edge6" class="edge">
<title>Node6&#45;&gt;Node7</title>
<path fill="none" stroke="midnightblue" d="M406.62,-56.44C435.01,-47.32 480.14,-32.81 511.75,-22.65"/>
<polygon fill="midnightblue" stroke="midnightblue" points="513.06,-25.91 521.5,-19.52 510.91,-19.24 513.06,-25.91"/>
</g>
<!-- Node8 -->
<g id="node8" class="node">
<title>Node8</title>
<g id="a_node8"><a xlink:title=" ">
<polygon fill="white" stroke="#bfbfbf" points="382.5,-0.5 382.5,-19.5 465.5,-19.5 465.5,-0.5 382.5,-0.5"/>
<text text-anchor="middle" x="424" y="-7.5" font-family="Helvetica,sans-Serif" font-size="10.00">GLFW/glfw3.h</text>
</a>
</g>
</g>
<!-- Node6&#45;&gt;Node8 -->
<g id="edge7" class="edge">
<title>Node6&#45;&gt;Node8</title>
<path fill="none" stroke="midnightblue" d="M387.27,-56.08C393.54,-48.38 402.79,-37.03 410.43,-27.65"/>
<polygon fill="midnightblue" stroke="midnightblue" points="413.27,-29.71 416.87,-19.75 407.84,-25.29 413.27,-29.71"/>
</g>
<!-- Node9 -->
<g id="node9" class="node">
<title>Node9</title>
<g id="a_node9"><a xlink:title=" ">
<polygon fill="white" stroke="#bfbfbf" points="308,-0.5 308,-19.5 364,-19.5 364,-0.5 308,-0.5"/>
<text text-anchor="middle" x="336" y="-7.5" font-family="Helvetica,sans-Serif" font-size="10.00">stddef.h</text>
</a>
</g>
</g>
<!-- Node6&#45;&gt;Node9 -->
<g id="edge8" class="edge">
<title>Node6&#45;&gt;Node9</title>
<path fill="none" stroke="midnightblue" d="M372.73,-56.08C366.46,-48.38 357.21,-37.03 349.57,-27.65"/>
<polygon fill="midnightblue" stroke="midnightblue" points="352.16,-25.29 343.13,-19.75 346.73,-29.71 352.16,-25.29"/>
</g>
<!-- Node10 -->
<g id="node10" class="node">
<title>Node10</title>
<g id="a_node10"><a xlink:title=" ">
<polygon fill="white" stroke="#bfbfbf" points="196.5,-0.5 196.5,-19.5 249.5,-19.5 249.5,-0.5 196.5,-0.5"/>
<text text-anchor="middle" x="223" y="-7.5" font-family="Helvetica,sans-Serif" font-size="10.00">stdint.h</text>
</a>
</g>
</g>
<!-- Node6&#45;&gt;Node10 -->
<g id="edge9" class="edge">
<title>Node6&#45;&gt;Node10</title>
<path fill="none" stroke="midnightblue" d="M355.12,-56.44C328.71,-47.36 286.78,-32.94 257.26,-22.78"/>
<polygon fill="midnightblue" stroke="midnightblue" points="258.36,-19.46 247.76,-19.52 256.08,-26.08 258.36,-19.46"/>
</g>
<!-- Node12&#45;&gt;Node5 -->
<g id="edge13" class="edge">
<title>Node12&#45;&gt;Node5</title>
<path fill="none" stroke="midnightblue" d="M579.52,-168.32C570.8,-160.34 557.66,-148.31 547.1,-138.65"/>
<polygon fill="midnightblue" stroke="midnightblue" points="549.39,-136 539.65,-131.83 544.67,-141.17 549.39,-136"/>
</g>
<!-- Node12&#45;&gt;Node7 -->
<g id="edge12" class="edge">
<title>Node12&#45;&gt;Node7</title>
<path fill="none" stroke="midnightblue" d="M586.8,-168.08C580.34,-141.95 561.39,-65.21 552.59,-29.58"/>
<polygon fill="midnightblue" stroke="midnightblue" points="555.91,-28.44 550.12,-19.57 549.12,-30.12 555.91,-28.44"/>
</g>
<!-- Node13&#45;&gt;Node6 -->
<g id="edge15" class="edge">
<title>Node13&#45;&gt;Node6</title>
<path fill="none" stroke="midnightblue" d="M439.59,-112.32C428.89,-104.18 412.66,-91.84 399.84,-82.09"/>
<polygon fill="midnightblue" stroke="midnightblue" points="401.69,-79.1 391.61,-75.83 397.46,-84.67 401.69,-79.1"/>
</g>
<!-- Node15 -->
<g id="node15" class="node">
<title>Node15</title>
<g id="a_node15"><a xlink:title=" ">
<polygon fill="white" stroke="#bfbfbf" points="261,-112.5 261,-131.5 323,-131.5 323,-112.5 261,-112.5"/>
<text text-anchor="middle" x="292" y="-119.5" font-family="Helvetica,sans-Serif" font-size="10.00">stdbool.h</text>
</a>
</g>
</g>
<!-- Node14&#45;&gt;Node15 -->
<g id="edge17" class="edge">
<title>Node14&#45;&gt;Node15</title>
<path fill="none" stroke="midnightblue" d="M294.5,-168.08C294.11,-161.01 293.55,-150.86 293.05,-141.99"/>
<polygon fill="midnightblue" stroke="midnightblue" points="296.54,-141.54 292.49,-131.75 289.55,-141.93 296.54,-141.54"/>
</g>
<!-- Node20 -->
<g id="node20" class="node">
<title>Node20</title>
<g id="a_node20"><a xlink:href="async__loader_8h.html" target="_top" xlink:title="Threaded asynchronous file loader for heavy assets (HDR, textures).">
<polygon fill="white" stroke="black" points="131.5,-168.5 131.5,-187.5 220.5,-187.5 220.5,-168.5 131.5,-168.5"/>
<text text-anchor="middle" x="176" y="-175.5" font-family="Helvetica,sans-Serif" font-size="10.00">async_loader.h</text>
</a>
</g>
</g>
<!-- Node19&#45;&gt;Node20 -->
<g id="edge25" class="edge">
<title>Node19&#45;&gt;Node20</title>
<path fill="none" stroke="midnightblue" d="M158.47,-224.08C161.31,-216.77 165.43,-206.18 168.96,-197.1"/>
<polygon fill="midnightblue" stroke="midnightblue" points="172.23,-198.34 172.6,-187.75 165.71,-195.8 172.23,-198.34"/>
</g>
<!-- Node20&#45;&gt;Node6 -->
<g id="edge26" class="edge">
<title>Node20&#45;&gt;Node6</title>
<path fill="none" stroke="midnightblue" d="M184.09,-168.25C197.17,-154.55 224.32,-127.95 252,-112 278.04,-97 309.91,-85.77 335.33,-78.29"/>
<polygon fill="midnightblue" stroke="midnightblue" points="336.43,-81.61 345.09,-75.5 334.51,-74.88 336.43,-81.61"/>
</g>
<!-- Node20&#45;&gt;Node10 -->
<g id="edge28" class="edge">
<title>Node20&#45;&gt;Node10</title>
<path fill="none" stroke="midnightblue" d="M178.53,-168.08C185.93,-141.95 207.65,-65.21 217.74,-29.58"/>
<polygon fill="midnightblue" stroke="midnightblue" points="221.22,-30.14 220.57,-19.57 214.48,-28.24 221.22,-30.14"/>
</g>
<!-- Node20&#45;&gt;Node15 -->
<g id="edge27" class="edge">
<title>Node20&#45;&gt;Node15</title>
<path fill="none" stroke="midnightblue" d="M194.38,-168.44C213.22,-159.68 242.73,-145.94 264.38,-135.86"/>
<polygon fill="midnightblue" stroke="midnightblue" points="266.12,-138.91 273.71,-131.52 263.16,-132.56 266.12,-138.91"/>
</g>
</g>
</svg>
        <g id="navigator" transform="translate(0 0)" fill="#404254">
                <rect fill="#f2f5e9" fill-opacity="0.5" stroke="#606060" stroke-width=".5" x="0" y="0" width="60" height="60"/>
                <use id="zoomplus" xlink:href="#zoomPlus" x="17" y="9" onmousedown="handleZoom(evt,'in')"/>
                <use id="zoomminus" xlink:href="#zoomMin" x="42" y="9" onmousedown="handleZoom(evt,'out')"/>
                <use id="reset" xlink:href="#resetDef" x="30" y="36" onmousedown="handleReset()"/>
                <g id="arrowUp" xlink:href="#dirArrow" transform="translate(30 24)" onmousedown="handlePan(0,-1)">
                  <use xlink:href="#rim" fill="#404040">
                        <set attributeName="fill" to="#808080" begin="arrowUp.mouseover" end="arrowUp.mouseout"/>
                  </use>
                  <path fill="none" stroke="white" stroke-width="1.5" d="M0,-3.0v7 M-2.5,-0.5L0,-3.0L2.5,-0.5"/>
                </g>
                <g id="arrowRight" xlink:href="#dirArrow" transform="rotate(90) translate(36 -43)" onmousedown="handlePan(1,0)">
                  <use xlink:href="#rim" fill="#404040">
                        <set attributeName="fill" to="#808080" begin="arrowRight.mouseover" end="arrowRight.mouseout"/>
                  </use>
                  <path fill="none" stroke="white" stroke-width="1.5" d="M0,-3.0v7 M-2.5,-0.5L0,-3.0L2.5,-0.5"/>
                </g>
                <g id="arrowDown" xlink:href="#dirArrow" transform="rotate(180) translate(-30 -48)" onmousedown="handlePan(0,1)">
                  <use xlink:href="#rim" fill="#404040">
                        <set attributeName="fill" to="#808080" begin="arrowDown.mouseover" end="arrowDown.mouseout"/>
                  </use>
                  <path fill="none" stroke="white" stroke-width="1.5" d="M0,-3.0v7 M-2.5,-0.5L0,-3.0L2.5,-0.5"/>
                </g>
                <g id="arrowLeft" xlink:href="#dirArrow" transform="rotate(270) translate(-36 17)" onmousedown="handlePan(-1,0)">
                  <use xlink:href="#rim" fill="#404040">
                        <set attributeName="fill" to="#808080" begin="arrowLeft.mouseover" end="arrowLeft.mouseout"/>
                  </use>
                  <path fill="none" stroke="white" stroke-width="1.5" d="M0,-3.0v7 M-2.5,-0.5L0,-3.0L2.5,-0.5"/>
                </g>
        </g>
        <svg viewBox="0 0 15 15" width="100%" height="30px" preserveAspectRatio="xMaxYMin meet">
         <g id="arrow_out" transform="scale(0.3 0.3)">
          <a xlink:href="main_8c__incl_org.svg" target="_base">
           <rect id="button" ry="5" rx="5" y="6" x="6" height="38" width="38"
                fill="#f2f5e9" fill-opacity="0.5" stroke="#606060" stroke-width="1.0"/>
           <path id="arrow"
             d="M 11.500037,31.436501 C 11.940474,20.09759 22.043105,11.32322 32.158766,21.979434 L 37.068811,17.246167 C 37.068811,17.246167 37.088388,32 37.088388,32 L 22.160133,31.978069 C 22.160133,31.978069 26.997745,27.140456 26.997745,27.140456 C 18.528582,18.264221 13.291696,25.230495 11.500037,31.436501 z"
             style="fill:#404040;"/>
          </a>
         </g>
        </svg>
</svg>
