<?xml version="1.0" encoding="UTF-8" standalone="no"?>
<!DOCTYPE svg PUBLIC "-//W3C//DTD SVG 1.1//EN"
 "http://www.w3.org/Graphics/SVG/1.1/DTD/svg11.dtd">
<!-- Generated by graphviz version 2.43.0 (0)
 -->
<!-- Title: scroll_callback Pages: 1 -->
<svg width="419pt" height="39pt"
 viewBox="0.00 0.00 419.00 39.00" xmlns="http://www.w3.org/2000/svg" xmlns:xlink="http://www.w3.org/1999/xlink">
<g id="graph0" class="graph" transform="scale(1 1) rotate(0) translate(4 35)">
<title>scroll_callback</title>
<polygon fill="white" stroke="transparent" points="-4,4 -4,-35 415,-35 415,4 -4,4"/>
<!-- Node1 -->
<g id="node1" class="node">
<title>Node1</title>
<g id="a_node1"><a xlink:title="Primary GLFW scroll callback.">
<polygon fill="#bfbfbf" stroke="black" points="0,-6 0,-25 89,-25 89,-6 0,-6"/>
<text text-anchor="middle" x="44.5" y="-13" font-family="Helvetica,sans-Serif" font-size="10.00">scroll_callback</text>
</a>
</g>
</g>
<!-- Node2 -->
<g id="node2" class="node">
<title>Node2</title>
<g id="a_node2"><a xlink:href="camera__input_8h.html#a98c2a3b748c3256a2b65e97973e42888" target="_top" xlink:title="Processes a scroll event to adjust camera speed or zoom.">
<polygon fill="white" stroke="black" points="125,-0.5 125,-30.5 247,-30.5 247,-0.5 125,-0.5"/>
<text text-anchor="start" x="133" y="-18.5" font-family="Helvetica,sans-Serif" font-size="10.00">camera_input_handle</text>
<text text-anchor="middle" x="186" y="-7.5" font-family="Helvetica,sans-Serif" font-size="10.00">_scroll</text>
</a>
</g>
</g>
<!-- Node1&#45;&gt;Node2 -->
<g id="edge1" class="edge">
<title>Node1&#45;&gt;Node2</title>
<path fill="none" stroke="midnightblue" d="M89.26,-15.5C97.35,-15.5 106,-15.5 114.65,-15.5"/>
<polygon fill="midnightblue" stroke="midnightblue" points="114.79,-19 124.79,-15.5 114.79,-12 114.79,-19"/>
</g>
<!-- Node3 -->
<g id="node3" class="node">
<title>Node3</title>
<g id="a_node3"><a xlink:href="camera_8h.html#a7359946256cd8193b91caa4b82bc20ec" target="_top" xlink:title="Processes mouse scroll events to apply physical impulse.">
<polygon fill="white" stroke="black" points="283,-6 283,-25 411,-25 411,-6 283,-6"/>
<text text-anchor="middle" x="347" y="-13" font-family="Helvetica,sans-Serif" font-size="10.00">camera_process_scroll</text>
</a>
</g>
</g>
<!-- Node2&#45;&gt;Node3 -->
<g id="edge2" class="edge">
<title>Node2&#45;&gt;Node3</title>
<path fill="none" stroke="midnightblue" d="M247.11,-15.5C255.52,-15.5 264.23,-15.5 272.85,-15.5"/>
<polygon fill="midnightblue" stroke="midnightblue" points="272.89,-19 282.89,-15.5 272.89,-12 272.89,-19"/>
</g>
</g>
</svg>
