<?xml version="1.0" encoding="UTF-8" standalone="no"?>
<!DOCTYPE svg PUBLIC "-//W3C//DTD SVG 1.1//EN"
 "http://www.w3.org/Graphics/SVG/1.1/DTD/svg11.dtd">
<!-- Generated by graphviz version 2.43.0 (0)
 -->
<!-- Title: process_irradiance Pages: 1 -->
<svg width="449pt" height="154pt"
 viewBox="0.00 0.00 449.00 154.00" xmlns="http://www.w3.org/2000/svg" xmlns:xlink="http://www.w3.org/1999/xlink">
<g id="graph0" class="graph" transform="scale(1 1) rotate(0) translate(4 150)">
<title>process_irradiance</title>
<polygon fill="white" stroke="transparent" points="-4,4 -4,-150 445,-150 445,4 -4,4"/>
<!-- Node1 -->
<g id="node1" class="node">
<title>Node1</title>
<g id="a_node1"><a xlink:title=" ">
<polygon fill="#bfbfbf" stroke="black" points="0,-66.5 0,-85.5 108,-85.5 108,-66.5 0,-66.5"/>
<text text-anchor="middle" x="54" y="-73.5" font-family="Helvetica,sans-Serif" font-size="10.00">process_irradiance</text>
</a>
</g>
</g>
<!-- Node2 -->
<g id="node2" class="node">
<title>Node2</title>
<g id="a_node2"><a xlink:href="ibl__coordinator_8c.html#ad84674ac64b27b24aeca92bd5ab7d1c4" target="_top" xlink:title="Accumulate a slice&#39;s GPU timing into the stage statistics.">
<polygon fill="white" stroke="black" points="149,-126.5 149,-145.5 269,-145.5 269,-126.5 149,-126.5"/>
<text text-anchor="middle" x="209" y="-133.5" font-family="Helvetica,sans-Serif" font-size="10.00">ibl_stats_accumulate</text>
</a>
</g>
</g>
<!-- Node1&#45;&gt;Node2 -->
<g id="edge1" class="edge">
<title>Node1&#45;&gt;Node2</title>
<path fill="none" stroke="midnightblue" d="M73.76,-85.6C91.55,-94.47 119.16,-107.65 144,-117 149.98,-119.25 156.35,-121.41 162.67,-123.42"/>
<polygon fill="midnightblue" stroke="midnightblue" points="161.9,-126.85 172.49,-126.44 163.96,-120.16 161.9,-126.85"/>
</g>
<!-- Node3 -->
<g id="node3" class="node">
<title>Node3</title>
<g id="a_node3"><a xlink:href="ibl__coordinator_8c.html#a5b1a8f5de925bfe99792303d6c760488" target="_top" xlink:title="Log a single INFO summary line for a completed IBL stage.">
<polygon fill="white" stroke="black" points="144,-88.5 144,-107.5 274,-107.5 274,-88.5 144,-88.5"/>
<text text-anchor="middle" x="209" y="-95.5" font-family="Helvetica,sans-Serif" font-size="10.00">ibl_stats_log_summary</text>
</a>
</g>
</g>
<!-- Node1&#45;&gt;Node3 -->
<g id="edge2" class="edge">
<title>Node1&#45;&gt;Node3</title>
<path fill="none" stroke="midnightblue" d="M108.08,-83.63C116.4,-84.83 125.12,-86.08 133.8,-87.33"/>
<polygon fill="midnightblue" stroke="midnightblue" points="133.55,-90.83 143.94,-88.79 134.54,-83.9 133.55,-90.83"/>
</g>
<!-- Node5 -->
<g id="node5" class="node">
<title>Node5</title>
<g id="a_node5"><a xlink:href="pbr_8h.html#a719d0f0fa9fdb9a743885fc82c617162" target="_top" xlink:title="Computes one face/slice of the irradiance map.">
<polygon fill="white" stroke="black" points="152,-39 152,-69 266,-69 266,-39 152,-39"/>
<text text-anchor="start" x="160" y="-57" font-family="Helvetica,sans-Serif" font-size="10.00">pbr_irradiance_slice</text>
<text text-anchor="middle" x="209" y="-46" font-family="Helvetica,sans-Serif" font-size="10.00">_compute</text>
</a>
</g>
</g>
<!-- Node1&#45;&gt;Node5 -->
<g id="edge4" class="edge">
<title>Node1&#45;&gt;Node5</title>
<path fill="none" stroke="midnightblue" d="M108.08,-68.37C118.92,-66.81 130.45,-65.15 141.68,-63.54"/>
<polygon fill="midnightblue" stroke="midnightblue" points="142.49,-66.96 151.89,-62.07 141.49,-60.03 142.49,-66.96"/>
</g>
<!-- Node6 -->
<g id="node6" class="node">
<title>Node6</title>
<g id="a_node6"><a xlink:href="utils_8h.html#aca6393fbdcd75a7379484de0a7604136" target="_top" xlink:title="Safe wrapper around vsnprintf to format strings with bounds checking.">
<polygon fill="white" stroke="black" points="169,-0.5 169,-19.5 249,-19.5 249,-0.5 169,-0.5"/>
<text text-anchor="middle" x="209" y="-7.5" font-family="Helvetica,sans-Serif" font-size="10.00">safe_snprintf</text>
</a>
</g>
</g>
<!-- Node1&#45;&gt;Node6 -->
<g id="edge5" class="edge">
<title>Node1&#45;&gt;Node6</title>
<path fill="none" stroke="midnightblue" d="M71.32,-66.47C88.87,-56.48 117.78,-40.78 144,-30 150.37,-27.38 157.21,-24.91 163.96,-22.65"/>
<polygon fill="midnightblue" stroke="midnightblue" points="165.28,-25.9 173.73,-19.5 163.14,-19.24 165.28,-25.9"/>
</g>
<!-- Node4 -->
<g id="node4" class="node">
<title>Node4</title>
<g id="a_node4"><a xlink:href="perf__timer_8h.html#a0d2ae17973105f843bf88f6f7be496bc" target="_top" xlink:title="Stops the timer and returns elapsed time in milliseconds.">
<polygon fill="white" stroke="black" points="310,-88.5 310,-107.5 441,-107.5 441,-88.5 310,-88.5"/>
<text text-anchor="middle" x="375.5" y="-95.5" font-family="Helvetica,sans-Serif" font-size="10.00">perf_timer_elapsed_ms</text>
</a>
</g>
</g>
<!-- Node3&#45;&gt;Node4 -->
<g id="edge3" class="edge">
<title>Node3&#45;&gt;Node4</title>
<path fill="none" stroke="midnightblue" d="M274.07,-98C282.5,-98 291.2,-98 299.78,-98"/>
<polygon fill="midnightblue" stroke="midnightblue" points="299.79,-101.5 309.79,-98 299.79,-94.5 299.79,-101.5"/>
</g>
</g>
</svg>
