<?xml version="1.0" encoding="UTF-8" standalone="no"?>
<!DOCTYPE svg PUBLIC "-//W3C//DTD SVG 1.1//EN"
 "http://www.w3.org/Graphics/SVG/1.1/DTD/svg11.dtd">
<!-- Generated by graphviz version 2.43.0 (0)
 -->
<!-- Title: postprocess_enable Pages: 1 -->
<!--zoomable 644 -->

<svg id="main" version="1.1" xmlns="http://www.w3.org/2000/svg" xmlns:xlink="http://www.w3.org/1999/xlink" xml:space="preserve" onload="init(evt)">
<style type="text/css"><![CDATA[
.node, .edge {opacity: 0.7;}
.node.selected, .edge.selected {opacity: 1;}
.edge:hover path { stroke: red; }
.edge:hover polygon { stroke: red; fill: red; }
]]></style>

<defs>
  <circle id="rim" cx="0" cy="0" r="7"/>
  <circle id="rim2" cx="0" cy="0" r="3.5"/>
  <g id="zoomPlus">
    <use xlink:href="#rim" fill="#404040"><set attributeName="fill" to="#808080" begin="zoomplus.mouseover" end="zoomplus.mouseout"/></use>
    <path d="M-4,0h8M0,-4v8" fill="none" stroke="white" stroke-width="1.5" pointer-events="none"/>
  </g>
  <g id="zoomMin">
    <use xlink:href="#rim" fill="#404040"><set attributeName="fill" to="#808080" begin="zoomminus.mouseover" end="zoomminus.mouseout"/></use>
    <path d="M-4,0h8" fill="none" stroke="white" stroke-width="1.5" pointer-events="none"/>
  </g>
  <g id="arrowUp" transform="translate(30 24)">
    <use xlink:href="#rim"/>
    <path pointer-events="none" fill="none" stroke="white" stroke-width="1.5" d="M0,-3.0v7 M-2.5,-0.5L0,-3.0L2.5,-0.5"/>
  </g>
  <g id="arrowRight" transform="rotate(90) translate(36 -43)">
    <use xlink:href="#rim"/>
    <path pointer-events="none" fill="none" stroke="white" stroke-width="1.5" d="M0,-3.0v7 M-2.5,-0.5L0,-3.0L2.5,-0.5"/>
  </g>
  <g id="arrowDown" transform="rotate(180) translate(-30 -48)">
    <use xlink:href="#rim"/>
    <path pointer-events="none" fill="none" stroke="white" stroke-width="1.5" d="M0,-3.0v7 M-2.5,-0.5L0,-3.0L2.5,-0.5"/>
  </g>
  <g id="arrowLeft" transform="rotate(270) translate(-36 17)">
    <use xlink:href="#rim"/>
    <path pointer-events="none" fill="none" stroke="white" stroke-width="1.5" d="M0,-3.0v7 M-2.5,-0.5L0,-3.0L2.5,-0.5"/>
  </g>
  <g id="resetDef">
    <use xlink:href="#rim2" fill="#404040"><set attributeName="fill" to="#808080" begin="reset.mouseover" end="reset.mouseout"/></use>
  </g>
</defs>
<script type="application/ecmascript">
var viewWidth = 1744;
var viewHeight = 644;
var sectionId = 'dynsection-6';
</script>
<script type="application/ecmascript" xlink:href="svg.min.js"/>
<svg id="graph" class="graph">
<g id="viewport">
<title>postprocess_enable</title>
<!-- Node1 -->
<g id="Node000001" class="node">
<title>Node1</title>
<g id="a_Node000001"><a xlink:title="Enables a specific effect.">
<polygon fill="#999999" stroke="#666666" points="113,-249 0,-249 0,-230 113,-230 113,-249"/>
<text text-anchor="middle" x="56.5" y="-237" font-family="Helvetica,sans-Serif" font-size="10.00">postprocess_enable</text>
</a>
</g>
</g>
<!-- Node2 -->
<g id="Node000002" class="node">
<title>Node2</title>
<g id="a_Node000002"><a xlink:href="postprocess_8c.html#aa747a4eb6f575c9d9fc7e97df5c8e847" target="_top" xlink:title=" ">
<polygon fill="white" stroke="#666666" points="271,-254.5 149,-254.5 149,-224.5 271,-224.5 271,-254.5"/>
<text text-anchor="start" x="157" y="-242.5" font-family="Helvetica,sans-Serif" font-size="10.00">postprocess_on_state</text>
<text text-anchor="middle" x="210" y="-231.5" font-family="Helvetica,sans-Serif" font-size="10.00">_change</text>
</a>
</g>
</g>
<!-- Node1&#45;&gt;Node2 -->
<g id="edge1_Node000001_Node000002" class="edge">
<title>Node1&#45;&gt;Node2</title>
<g id="a_edge1_Node000001_Node000002"><a xlink:title=" ">
<path fill="none" stroke="#63b8ff" d="M113.05,-239.5C121.43,-239.5 130.16,-239.5 138.8,-239.5"/>
<polygon fill="#63b8ff" stroke="#63b8ff" points="138.86,-243 148.86,-239.5 138.86,-236 138.86,-243"/>
</a>
</g>
</g>
<!-- Node3 -->
<g id="Node000003" class="node">
<title>Node3</title>
<g id="a_Node000003"><a xlink:href="postprocess_8c.html#aefd09528f2a616bdde219a7f5683847c" target="_top" xlink:title="Compiles a specialized Uber&#45;shader for maximum performance.">
<polygon fill="white" stroke="#666666" points="426,-254.5 307,-254.5 307,-224.5 426,-224.5 426,-254.5"/>
<text text-anchor="start" x="315" y="-242.5" font-family="Helvetica,sans-Serif" font-size="10.00">postprocess_compile</text>
<text text-anchor="middle" x="366.5" y="-231.5" font-family="Helvetica,sans-Serif" font-size="10.00">_optimized</text>
</a>
</g>
</g>
<!-- Node2&#45;&gt;Node3 -->
<g id="edge2_Node000002_Node000003" class="edge">
<title>Node2&#45;&gt;Node3</title>
<g id="a_edge2_Node000002_Node000003"><a xlink:title=" ">
<path fill="none" stroke="#63b8ff" d="M271.18,-239.5C279.49,-239.5 288.08,-239.5 296.54,-239.5"/>
<polygon fill="#63b8ff" stroke="#63b8ff" points="296.76,-243 306.76,-239.5 296.76,-236 296.76,-243"/>
</a>
</g>
</g>
<!-- Node4 -->
<g id="Node000004" class="node">
<title>Node4</title>
<g id="a_Node000004"><a xlink:href="postprocess_8c.html#aed006d7906b9c51301116c84de7e3de0" target="_top" xlink:title=" ">
<polygon fill="white" stroke="#666666" points="594,-378 473,-378 473,-359 594,-359 594,-378"/>
<text text-anchor="middle" x="533.5" y="-366" font-family="Helvetica,sans-Serif" font-size="10.00">find_shader_in_cache</text>
</a>
</g>
</g>
<!-- Node3&#45;&gt;Node4 -->
<g id="edge3_Node000003_Node000004" class="edge">
<title>Node3&#45;&gt;Node4</title>
<g id="a_edge3_Node000003_Node000004"><a xlink:title=" ">
<path fill="none" stroke="#63b8ff" d="M376.42,-254.85C391.13,-278.78 422.8,-324.81 462,-349.5 465.34,-351.61 468.92,-353.48 472.62,-355.15"/>
<polygon fill="#63b8ff" stroke="#63b8ff" points="471.43,-358.44 482.01,-358.89 474.01,-351.94 471.43,-358.44"/>
</a>
</g>
</g>
<!-- Node5 -->
<g id="Node000005" class="node">
<title>Node5</title>
<g id="a_Node000005"><a xlink:href="postprocess_8c.html#a7a5221e8b5c9dc0821f1315ee7151933" target="_top" xlink:title=" ">
<polygon fill="white" stroke="#666666" points="595.5,-341 471.5,-341 471.5,-322 595.5,-322 595.5,-341"/>
<text text-anchor="middle" x="533.5" y="-329" font-family="Helvetica,sans-Serif" font-size="10.00">log_optimized_effects</text>
</a>
</g>
</g>
<!-- Node3&#45;&gt;Node5 -->
<g id="edge4_Node000003_Node000005" class="edge">
<title>Node3&#45;&gt;Node5</title>
<g id="a_edge4_Node000003_Node000005"><a xlink:title=" ">
<path fill="none" stroke="#63b8ff" d="M385.27,-254.76C403.53,-269.82 433.25,-292.68 462,-307.5 470.27,-311.76 479.46,-315.53 488.41,-318.73"/>
<polygon fill="#63b8ff" stroke="#63b8ff" points="487.36,-322.07 497.95,-321.99 489.62,-315.45 487.36,-322.07"/>
</a>
</g>
</g>
<!-- Node6 -->
<g id="Node000006" class="node">
<title>Node6</title>
<g id="a_Node000006"><a xlink:href="utils_8c.html#aca6393fbdcd75a7379484de0a7604136" target="_top" xlink:title="Safe wrapper around vsnprintf to format strings with bounds checking.">
<polygon fill="white" stroke="#666666" points="1715.5,-341 1635.5,-341 1635.5,-322 1715.5,-322 1715.5,-341"/>
<text text-anchor="middle" x="1675.5" y="-329" font-family="Helvetica,sans-Serif" font-size="10.00">safe_snprintf</text>
</a>
</g>
</g>
<!-- Node3&#45;&gt;Node6 -->
<g id="edge5_Node000003_Node000006" class="edge">
<title>Node3&#45;&gt;Node6</title>
<g id="a_edge5_Node000003_Node000006"><a xlink:title=" ">
<path fill="none" stroke="#63b8ff" d="M426.19,-254.54C493.79,-270.52 608.4,-293.5 708.5,-293.5 708.5,-293.5 708.5,-293.5 1361.5,-293.5 1458.53,-293.5 1482.94,-298.79 1579,-312.5 1594.09,-314.65 1610.4,-317.65 1625.2,-320.62"/>
<polygon fill="#63b8ff" stroke="#63b8ff" points="1624.67,-324.09 1635.17,-322.67 1626.08,-317.23 1624.67,-324.09"/>
</a>
</g>
</g>
<!-- Node7 -->
<g id="Node000007" class="node">
<title>Node7</title>
<g id="a_Node000007"><a xlink:href="shader_8c.html#a54bf3663058663ec7530cd1a0a1af00b" target="_top" xlink:title="Destroys the shader wrapper and deletes the GL program.">
<polygon fill="white" stroke="#666666" points="755.5,-93 663.5,-93 663.5,-74 755.5,-74 755.5,-93"/>
<text text-anchor="middle" x="709.5" y="-81" font-family="Helvetica,sans-Serif" font-size="10.00">shader_destroy</text>
</a>
</g>
</g>
<!-- Node3&#45;&gt;Node7 -->
<g id="edge6_Node000003_Node000007" class="edge">
<title>Node3&#45;&gt;Node7</title>
<g id="a_edge6_Node000003_Node000007"><a xlink:title=" ">
<path fill="none" stroke="#63b8ff" d="M389.48,-224.48C408.3,-211.95 436.33,-194.01 462,-180.5 538.79,-140.08 559.26,-131.66 641,-102.5 647.47,-100.19 654.37,-97.98 661.19,-95.93"/>
<polygon fill="#63b8ff" stroke="#63b8ff" points="662.45,-99.21 671.08,-93.05 660.5,-92.49 662.45,-99.21"/>
</a>
</g>
</g>
<!-- Node8 -->
<g id="Node000008" class="node">
<title>Node8</title>
<g id="a_Node000008"><a xlink:href="shader_8c.html#a3ed121856b4a37f0d99085e5bd01dada" target="_top" xlink:title="Special loader that injects #define directives before compilation.">
<polygon fill="white" stroke="#666666" points="605,-209 462,-209 462,-190 605,-190 605,-209"/>
<text text-anchor="middle" x="533.5" y="-197" font-family="Helvetica,sans-Serif" font-size="10.00">shader_load_with_defines</text>
</a>
</g>
</g>
<!-- Node3&#45;&gt;Node8 -->
<g id="edge7_Node000003_Node000008" class="edge">
<title>Node3&#45;&gt;Node8</title>
<g id="a_edge7_Node000003_Node000008"><a xlink:title=" ">
<path fill="none" stroke="#63b8ff" d="M426.14,-225.28C444.81,-220.76 465.26,-215.8 483.2,-211.45"/>
<polygon fill="#63b8ff" stroke="#63b8ff" points="484.27,-214.79 493.16,-209.04 482.62,-207.99 484.27,-214.79"/>
</a>
</g>
</g>
<!-- Node27 -->
<g id="Node000027" class="node">
<title>Node27</title>
<g id="a_Node000027"><a xlink:href="postprocess_8c.html#ab8bf3262e6e6564d91b8fb8ba41207d7" target="_top" xlink:title=" ">
<polygon fill="white" stroke="#666666" points="597.5,-75 469.5,-75 469.5,-56 597.5,-56 597.5,-75"/>
<text text-anchor="middle" x="533.5" y="-63" font-family="Helvetica,sans-Serif" font-size="10.00">update_current_shader</text>
</a>
</g>
</g>
<!-- Node3&#45;&gt;Node27 -->
<g id="edge40_Node000003_Node000027" class="edge">
<title>Node3&#45;&gt;Node27</title>
<g id="a_edge40_Node000003_Node000027"><a xlink:title=" ">
<path fill="none" stroke="#63b8ff" d="M377.87,-224.46C394.3,-201.13 427.97,-155.39 462,-121.5 476.95,-106.61 495.73,-91.85 510.15,-81.23"/>
<polygon fill="#63b8ff" stroke="#63b8ff" points="512.45,-83.89 518.49,-75.18 508.34,-78.22 512.45,-83.89"/>
</a>
</g>
</g>
<!-- Node8&#45;&gt;Node6 -->
<g id="edge8_Node000008_Node000006" class="edge">
<title>Node8&#45;&gt;Node6</title>
<g id="a_edge8_Node000008_Node000006"><a xlink:title=" ">
<path fill="none" stroke="#63b8ff" d="M602.1,-189.97C670.32,-181.18 778.75,-169.5 873,-169.5 873,-169.5 873,-169.5 1361.5,-169.5 1461.21,-169.5 1493.73,-172.82 1579,-224.5 1616.41,-247.17 1647.45,-289.12 1663.24,-313.21"/>
<polygon fill="#63b8ff" stroke="#63b8ff" points="1660.38,-315.22 1668.71,-321.77 1666.28,-311.46 1660.38,-315.22"/>
</a>
</g>
</g>
<!-- Node9 -->
<g id="Node000009" class="node">
<title>Node9</title>
<g id="a_Node000009"><a xlink:href="shader_8c.html#a4fe2213bc8202ee87fee6db962bb3cb0" target="_top" xlink:title=" ">
<polygon fill="white" stroke="#666666" points="766.5,-141.5 652.5,-141.5 652.5,-111.5 766.5,-111.5 766.5,-141.5"/>
<text text-anchor="start" x="660.5" y="-129.5" font-family="Helvetica,sans-Serif" font-size="10.00">shader_create_from</text>
<text text-anchor="middle" x="709.5" y="-118.5" font-family="Helvetica,sans-Serif" font-size="10.00">_program</text>
</a>
</g>
</g>
<!-- Node8&#45;&gt;Node9 -->
<g id="edge9_Node000008_Node000009" class="edge">
<title>Node8&#45;&gt;Node9</title>
<g id="a_edge9_Node000008_Node000009"><a xlink:title=" ">
<path fill="none" stroke="#63b8ff" d="M557.25,-189.96C584.02,-178.72 629.15,-159.79 663.15,-145.52"/>
<polygon fill="#63b8ff" stroke="#63b8ff" points="664.56,-148.73 672.43,-141.63 661.85,-142.28 664.56,-148.73"/>
</a>
</g>
</g>
<!-- Node12 -->
<g id="Node000012" class="node">
<title>Node12</title>
<g id="a_Node000012"><a xlink:href="shader_8c.html#a255b28dc6e7026ff72f086d2cee0c302" target="_top" xlink:title=" ">
<polygon fill="white" stroke="#666666" points="770.5,-227.5 648.5,-227.5 648.5,-197.5 770.5,-197.5 770.5,-227.5"/>
<text text-anchor="start" x="656.5" y="-215.5" font-family="Helvetica,sans-Serif" font-size="10.00">shader_load_program</text>
<text text-anchor="middle" x="709.5" y="-204.5" font-family="Helvetica,sans-Serif" font-size="10.00">_with_defines</text>
</a>
</g>
</g>
<!-- Node8&#45;&gt;Node12 -->
<g id="edge12_Node000008_Node000012" class="edge">
<title>Node8&#45;&gt;Node12</title>
<g id="a_edge12_Node000008_Node000012"><a xlink:title=" ">
<path fill="none" stroke="#63b8ff" d="M605.02,-204.77C616.06,-205.59 627.46,-206.45 638.48,-207.27"/>
<polygon fill="#63b8ff" stroke="#63b8ff" points="638.25,-210.76 648.48,-208.02 638.77,-203.78 638.25,-210.76"/>
</a>
</g>
</g>
<!-- Node10 -->
<g id="Node000010" class="node">
<title>Node10</title>
<g id="a_Node000010"><a xlink:href="shader_8c.html#ad982609bfce39b3f6ed4b89b9fc360b6" target="_top" xlink:title=" ">
<polygon fill="white" stroke="#666666" points="1102,-136 970,-136 970,-117 1102,-117 1102,-136"/>
<text text-anchor="middle" x="1036" y="-124" font-family="Helvetica,sans-Serif" font-size="10.00">shader_cache_uniforms</text>
</a>
</g>
</g>
<!-- Node9&#45;&gt;Node10 -->
<g id="edge10_Node000009_Node000010" class="edge">
<title>Node9&#45;&gt;Node10</title>
<g id="a_edge10_Node000009_Node000010"><a xlink:title=" ">
<path fill="none" stroke="#63b8ff" d="M766.65,-126.5C820.07,-126.5 900.8,-126.5 959.77,-126.5"/>
<polygon fill="#63b8ff" stroke="#63b8ff" points="959.77,-130 969.77,-126.5 959.77,-123 959.77,-130"/>
</a>
</g>
</g>
<!-- Node11 -->
<g id="Node000011" class="node">
<title>Node11</title>
<g id="a_Node000011"><a xlink:href="shader_8c.html#a377953af1b2ffd8ad74148f72f2bdc8d" target="_top" xlink:title=" ">
<polygon fill="white" stroke="#666666" points="1250,-115 1138,-115 1138,-96 1250,-96 1250,-115"/>
<text text-anchor="middle" x="1194" y="-103" font-family="Helvetica,sans-Serif" font-size="10.00">cmp_uniform_entry</text>
</a>
</g>
</g>
<!-- Node10&#45;&gt;Node11 -->
<g id="edge11_Node000010_Node000011" class="edge">
<title>Node10&#45;&gt;Node11</title>
<g id="a_edge11_Node000010_Node000011"><a xlink:title=" ">
<path fill="none" stroke="#63b8ff" d="M1102.25,-117.72C1110.68,-116.58 1119.32,-115.42 1127.74,-114.28"/>
<polygon fill="#63b8ff" stroke="#63b8ff" points="1128.45,-117.72 1137.9,-112.92 1127.52,-110.78 1128.45,-117.72"/>
</a>
</g>
</g>
<!-- Node12&#45;&gt;Node6 -->
<g id="edge13_Node000012_Node000006" class="edge">
<title>Node12&#45;&gt;Node6</title>
<g id="a_edge13_Node000012_Node000006"><a xlink:title=" ">
<path fill="none" stroke="#63b8ff" d="M770.6,-211.02C835.74,-209.55 942.74,-207.5 1035,-207.5 1035,-207.5 1035,-207.5 1361.5,-207.5 1478.43,-207.5 1603.74,-283.22 1652.94,-316.32"/>
<polygon fill="#63b8ff" stroke="#63b8ff" points="1650.99,-319.23 1661.22,-321.98 1654.93,-313.45 1650.99,-319.23"/>
</a>
</g>
</g>
<!-- Node13 -->
<g id="Node000013" class="node">
<title>Node13</title>
<g id="a_Node000013"><a xlink:href="shader_8c.html#a8b4891ad6e8e695bcad3defa570ac5a9" target="_top" xlink:title=" ">
<polygon fill="white" stroke="#666666" points="934,-265.5 814,-265.5 814,-235.5 934,-235.5 934,-265.5"/>
<text text-anchor="start" x="822" y="-253.5" font-family="Helvetica,sans-Serif" font-size="10.00">shader_compile_with</text>
<text text-anchor="middle" x="874" y="-242.5" font-family="Helvetica,sans-Serif" font-size="10.00">_defines</text>
</a>
</g>
</g>
<!-- Node12&#45;&gt;Node13 -->
<g id="edge14_Node000012_Node000013" class="edge">
<title>Node12&#45;&gt;Node13</title>
<g id="a_edge14_Node000012_Node000013"><a xlink:title=" ">
<path fill="none" stroke="#63b8ff" d="M770.55,-226.54C781.35,-229.07 792.68,-231.72 803.72,-234.3"/>
<polygon fill="#63b8ff" stroke="#63b8ff" points="803.21,-237.77 813.74,-236.64 804.8,-230.96 803.21,-237.77"/>
</a>
</g>
</g>
<!-- Node14 -->
<g id="Node000014" class="node">
<title>Node14</title>
<g id="a_Node000014"><a xlink:href="shader_8c.html#a7d3db64439dd78569e48580d0b580945" target="_top" xlink:title=" ">
<polygon fill="white" stroke="#666666" points="1097.5,-479.5 974.5,-479.5 974.5,-449.5 1097.5,-449.5 1097.5,-479.5"/>
<text text-anchor="start" x="982.5" y="-467.5" font-family="Helvetica,sans-Serif" font-size="10.00">shader_read_file_with</text>
<text text-anchor="middle" x="1036" y="-456.5" font-family="Helvetica,sans-Serif" font-size="10.00">_defines</text>
</a>
</g>
</g>
<!-- Node13&#45;&gt;Node14 -->
<g id="edge15_Node000013_Node000014" class="edge">
<title>Node13&#45;&gt;Node14</title>
<g id="a_edge15_Node000013_Node000014"><a xlink:title=" ">
<path fill="none" stroke="#63b8ff" d="M886.25,-265.55C913.79,-302.38 984.74,-397.28 1017.7,-441.36"/>
<polygon fill="#63b8ff" stroke="#63b8ff" points="1014.97,-443.56 1023.76,-449.47 1020.58,-439.36 1014.97,-443.56"/>
</a>
</g>
</g>
<!-- Node15 -->
<g id="Node000015" class="node">
<title>Node15</title>
<g id="a_Node000015"><a xlink:href="shader_8c.html#a66f86edf5f10c44d07a691cd2c138f35" target="_top" xlink:title=" ">
<polygon fill="white" stroke="#666666" points="1569.5,-341 1480.5,-341 1480.5,-322 1569.5,-322 1569.5,-341"/>
<text text-anchor="middle" x="1525" y="-329" font-family="Helvetica,sans-Serif" font-size="10.00">ctx_add_buffer</text>
</a>
</g>
</g>
<!-- Node14&#45;&gt;Node15 -->
<g id="edge16_Node000014_Node000015" class="edge">
<title>Node14&#45;&gt;Node15</title>
<g id="a_edge16_Node000014_Node000015"><a xlink:title=" ">
<path fill="none" stroke="#63b8ff" d="M1052.26,-449.31C1070.82,-431.81 1103.92,-403.67 1138,-389.5 1249.76,-343.05 1393.45,-333.18 1470.13,-331.46"/>
<polygon fill="#63b8ff" stroke="#63b8ff" points="1470.56,-334.95 1480.49,-331.27 1470.43,-327.95 1470.56,-334.95"/>
</a>
</g>
</g>
<!-- Node16 -->
<g id="Node000016" class="node">
<title>Node16</title>
<g id="a_Node000016"><a xlink:href="shader_8c.html#a576159e7078a0f92b5e3739cd6b9248c" target="_top" xlink:title=" ">
<polygon fill="white" stroke="#666666" points="1222,-418 1166,-418 1166,-399 1222,-399 1222,-418"/>
<text text-anchor="middle" x="1194" y="-406" font-family="Helvetica,sans-Serif" font-size="10.00">ctx_free</text>
</a>
</g>
</g>
<!-- Node14&#45;&gt;Node16 -->
<g id="edge17_Node000014_Node000016" class="edge">
<title>Node14&#45;&gt;Node16</title>
<g id="a_edge17_Node000014_Node000016"><a xlink:title=" ">
<path fill="none" stroke="#63b8ff" d="M1075.7,-449.49C1094.45,-442.33 1117.32,-433.77 1138,-426.5 1143.77,-424.47 1149.9,-422.39 1155.9,-420.4"/>
<polygon fill="#63b8ff" stroke="#63b8ff" points="1157.38,-423.6 1165.79,-417.15 1155.19,-416.95 1157.38,-423.6"/>
</a>
</g>
</g>
<!-- Node17 -->
<g id="Node000017" class="node">
<title>Node17</title>
<g id="a_Node000017"><a xlink:href="shader_8c.html#accb74d7cb19fd2bdf7d928b84376fc9c" target="_top" xlink:title=" ">
<polygon fill="white" stroke="#666666" points="1579,-579.5 1471,-579.5 1471,-549.5 1579,-549.5 1579,-579.5"/>
<text text-anchor="start" x="1479" y="-567.5" font-family="Helvetica,sans-Serif" font-size="10.00">inject_defines_into</text>
<text text-anchor="middle" x="1525" y="-556.5" font-family="Helvetica,sans-Serif" font-size="10.00">_source</text>
</a>
</g>
</g>
<!-- Node14&#45;&gt;Node17 -->
<g id="edge18_Node000014_Node000017" class="edge">
<title>Node14&#45;&gt;Node17</title>
<g id="a_edge18_Node000014_Node000017"><a xlink:title=" ">
<path fill="none" stroke="#63b8ff" d="M1077.78,-479.65C1126.58,-497.15 1211.11,-525.45 1286,-540.5 1344.54,-552.27 1412.39,-558.39 1460.63,-561.49"/>
<polygon fill="#63b8ff" stroke="#63b8ff" points="1460.42,-564.98 1470.62,-562.11 1460.86,-558 1460.42,-564.98"/>
</a>
</g>
</g>
<!-- Node18 -->
<g id="Node000018" class="node">
<title>Node18</title>
<g id="a_Node000018"><a xlink:href="utils_8c.html#a27804c99492b4365e7bc19cbc3d3e88e" target="_top" xlink:title="calloc wrapper with zero&#45;size check.">
<polygon fill="white" stroke="#666666" points="1711,-574 1640,-574 1640,-555 1711,-555 1711,-574"/>
<text text-anchor="middle" x="1675.5" y="-562" font-family="Helvetica,sans-Serif" font-size="10.00">safe_calloc</text>
</a>
</g>
</g>
<!-- Node14&#45;&gt;Node18 -->
<g id="edge38_Node000014_Node000018" class="edge">
<title>Node14&#45;&gt;Node18</title>
<g id="a_edge38_Node000014_Node000018"><a xlink:title=" ">
<path fill="none" stroke="#63b8ff" d="M1048.17,-479.79C1065.05,-501.72 1099.23,-541.74 1138,-562.5 1311.64,-655.48 1386.24,-647.01 1579,-606.5 1604.06,-601.23 1630.56,-588.98 1649.27,-579.06"/>
<polygon fill="#63b8ff" stroke="#63b8ff" points="1651.2,-581.99 1658.3,-574.13 1647.84,-575.85 1651.2,-581.99"/>
</a>
</g>
</g>
<!-- Node19 -->
<g id="Node000019" class="node">
<title>Node19</title>
<g id="a_Node000019"><a xlink:href="utils_8c.html#abeb736cfb3c1a73ff0b6c3fabc20b332" target="_top" xlink:title="memcpy wrapper with bounds checking.">
<polygon fill="white" stroke="#666666" points="1718.5,-534 1632.5,-534 1632.5,-515 1718.5,-515 1718.5,-534"/>
<text text-anchor="middle" x="1675.5" y="-522" font-family="Helvetica,sans-Serif" font-size="10.00">safe_memcpy</text>
</a>
</g>
</g>
<!-- Node14&#45;&gt;Node19 -->
<g id="edge39_Node000014_Node000019" class="edge">
<title>Node14&#45;&gt;Node19</title>
<g id="a_edge39_Node000014_Node000019"><a xlink:title=" ">
<path fill="none" stroke="#63b8ff" d="M1055.99,-479.6C1075.49,-494.39 1107.26,-516.54 1138,-529.5 1276.51,-587.87 1321.03,-578.41 1471,-588.5 1518.89,-591.72 1535.39,-608.56 1579,-588.5 1601.34,-578.23 1594.82,-560.55 1615,-546.5 1619.63,-543.28 1624.79,-540.46 1630.09,-538.02"/>
<polygon fill="#63b8ff" stroke="#63b8ff" points="1631.79,-541.1 1639.68,-534.02 1629.1,-534.64 1631.79,-541.1"/>
</a>
</g>
</g>
<!-- Node20 -->
<g id="Node000020" class="node">
<title>Node20</title>
<g id="a_Node000020"><a xlink:href="io_8c.html#a4ce68f88c050c3287a2a532957ffa1fc" target="_top" xlink:title="Reads an entire file into a null&#45;terminated string.">
<polygon fill="white" stroke="#666666" points="1561.5,-493 1488.5,-493 1488.5,-474 1561.5,-474 1561.5,-493"/>
<text text-anchor="middle" x="1525" y="-481" font-family="Helvetica,sans-Serif" font-size="10.00">io_read_file</text>
</a>
</g>
</g>
<!-- Node14&#45;&gt;Node20 -->
<g id="edge22_Node000014_Node000020" class="edge">
<title>Node14&#45;&gt;Node20</title>
<g id="a_edge22_Node000014_Node000020"><a xlink:title=" ">
<path fill="none" stroke="#63b8ff" d="M1097.69,-466.87C1196.44,-470.72 1389.69,-478.26 1478,-481.71"/>
<polygon fill="#63b8ff" stroke="#63b8ff" points="1478.11,-485.21 1488.23,-482.1 1478.38,-478.22 1478.11,-485.21"/>
</a>
</g>
</g>
<!-- Node22 -->
<g id="Node000022" class="node">
<title>Node22</title>
<g id="a_Node000022"><a xlink:href="shader_8c.html#a3aeeed571399ca7ff98bc7dc73ca8d05" target="_top" xlink:title=" ">
<polygon fill="white" stroke="#666666" points="1240,-455 1148,-455 1148,-436 1240,-436 1240,-455"/>
<text text-anchor="middle" x="1194" y="-443" font-family="Helvetica,sans-Serif" font-size="10.00">process_source</text>
</a>
</g>
</g>
<!-- Node14&#45;&gt;Node22 -->
<g id="edge25_Node000014_Node000022" class="edge">
<title>Node14&#45;&gt;Node22</title>
<g id="a_edge25_Node000014_Node000022"><a xlink:title=" ">
<path fill="none" stroke="#63b8ff" d="M1097.76,-457.1C1110.86,-455.5 1124.63,-453.83 1137.52,-452.26"/>
<polygon fill="#63b8ff" stroke="#63b8ff" points="1138.12,-455.71 1147.63,-451.03 1137.28,-448.76 1138.12,-455.71"/>
</a>
</g>
</g>
<!-- Node17&#45;&gt;Node6 -->
<g id="edge21_Node000017_Node000006" class="edge">
<title>Node17&#45;&gt;Node6</title>
<g id="a_edge21_Node000017_Node000006"><a xlink:title=" ">
<path fill="none" stroke="#63b8ff" d="M1540.4,-549.39C1551.61,-537.25 1567.18,-519.47 1579,-502.5 1615.47,-450.13 1649.8,-382.63 1665.52,-350.34"/>
<polygon fill="#63b8ff" stroke="#63b8ff" points="1668.76,-351.69 1669.95,-341.16 1662.45,-348.65 1668.76,-351.69"/>
</a>
</g>
</g>
<!-- Node17&#45;&gt;Node18 -->
<g id="edge19_Node000017_Node000018" class="edge">
<title>Node17&#45;&gt;Node18</title>
<g id="a_edge19_Node000017_Node000018"><a xlink:title=" ">
<path fill="none" stroke="#63b8ff" d="M1579.19,-564.5C1595.71,-564.5 1613.75,-564.5 1629.65,-564.5"/>
<polygon fill="#63b8ff" stroke="#63b8ff" points="1629.74,-568 1639.74,-564.5 1629.74,-561 1629.74,-568"/>
</a>
</g>
</g>
<!-- Node17&#45;&gt;Node19 -->
<g id="edge20_Node000017_Node000019" class="edge">
<title>Node17&#45;&gt;Node19</title>
<g id="a_edge20_Node000017_Node000019"><a xlink:title=" ">
<path fill="none" stroke="#63b8ff" d="M1579.19,-550.17C1595.44,-545.8 1613.16,-541.02 1628.86,-536.79"/>
<polygon fill="#63b8ff" stroke="#63b8ff" points="1630.1,-540.08 1638.85,-534.1 1628.28,-533.33 1630.1,-540.08"/>
</a>
</g>
</g>
<!-- Node20&#45;&gt;Node18 -->
<g id="edge24_Node000020_Node000018" class="edge">
<title>Node20&#45;&gt;Node18</title>
<g id="a_edge24_Node000020_Node000018"><a xlink:title=" ">
<path fill="none" stroke="#63b8ff" d="M1538.06,-493.1C1554.62,-505.93 1585.7,-528.76 1615,-543.5 1620.72,-546.38 1626.92,-549.03 1633.09,-551.42"/>
<polygon fill="#63b8ff" stroke="#63b8ff" points="1632.1,-554.78 1642.69,-554.94 1634.51,-548.21 1632.1,-554.78"/>
</a>
</g>
</g>
<!-- Node21 -->
<g id="Node000021" class="node">
<title>Node21</title>
<g id="a_Node000021"><a xlink:href="utils_8c.html#a520044f64f3253a0c6842b6f80b4e6d1" target="_top" xlink:title="Validates a relative path to prevent arbitrary file access.">
<polygon fill="white" stroke="#666666" points="1736,-474 1615,-474 1615,-455 1736,-455 1736,-474"/>
<text text-anchor="middle" x="1675.5" y="-462" font-family="Helvetica,sans-Serif" font-size="10.00">is_safe_relative_path</text>
</a>
</g>
</g>
<!-- Node20&#45;&gt;Node21 -->
<g id="edge23_Node000020_Node000021" class="edge">
<title>Node20&#45;&gt;Node21</title>
<g id="a_edge23_Node000020_Node000021"><a xlink:title=" ">
<path fill="none" stroke="#63b8ff" d="M1561.57,-478.95C1574.54,-477.29 1589.69,-475.35 1604.6,-473.44"/>
<polygon fill="#63b8ff" stroke="#63b8ff" points="1605.39,-476.87 1614.86,-472.13 1604.5,-469.93 1605.39,-476.87"/>
</a>
</g>
</g>
<!-- Node23 -->
<g id="Node000023" class="node">
<title>Node23</title>
<g id="a_Node000023"><a xlink:href="shader_8c.html#acf4c6444de4fe1143933a96b4bc54baa" target="_top" xlink:title=" ">
<polygon fill="white" stroke="#666666" points="1405,-418 1316,-418 1316,-399 1405,-399 1405,-418"/>
<text text-anchor="middle" x="1360.5" y="-406" font-family="Helvetica,sans-Serif" font-size="10.00">ctx_add_chunk</text>
</a>
</g>
</g>
<!-- Node22&#45;&gt;Node23 -->
<g id="edge26_Node000022_Node000023" class="edge">
<title>Node22&#45;&gt;Node23</title>
<g id="a_edge26_Node000022_Node000023"><a xlink:title=" ">
<path fill="none" stroke="#63b8ff" d="M1237.36,-435.97C1258.58,-431.2 1284.47,-425.38 1306.94,-420.32"/>
<polygon fill="#63b8ff" stroke="#63b8ff" points="1308.01,-423.67 1317,-418.06 1306.47,-416.84 1308.01,-423.67"/>
</a>
</g>
</g>
<!-- Node24 -->
<g id="Node000024" class="node">
<title>Node24</title>
<g id="a_Node000024"><a xlink:href="shader_8c.html#adec70256cc2e6f4382eae7f1cd03cfec" target="_top" xlink:title=" ">
<polygon fill="white" stroke="#666666" points="1416,-531 1305,-531 1305,-512 1416,-512 1416,-531"/>
<text text-anchor="middle" x="1360.5" y="-519" font-family="Helvetica,sans-Serif" font-size="10.00">parse_include_path</text>
</a>
</g>
</g>
<!-- Node22&#45;&gt;Node24 -->
<g id="edge27_Node000022_Node000024" class="edge">
<title>Node22&#45;&gt;Node24</title>
<g id="a_edge27_Node000022_Node000024"><a xlink:title=" ">
<path fill="none" stroke="#63b8ff" d="M1215.83,-455.13C1244.63,-468.43 1296.77,-492.52 1329.69,-507.73"/>
<polygon fill="#63b8ff" stroke="#63b8ff" points="1328.29,-510.94 1338.84,-511.95 1331.23,-504.58 1328.29,-510.94"/>
</a>
</g>
</g>
<!-- Node25 -->
<g id="Node000025" class="node">
<title>Node25</title>
<g id="a_Node000025"><a xlink:href="shader_8c.html#ac15799adabb256a48435e8b899baae35" target="_top" xlink:title=" ">
<polygon fill="white" stroke="#666666" points="1435,-455 1286,-455 1286,-436 1435,-436 1435,-455"/>
<text text-anchor="middle" x="1360.5" y="-443" font-family="Helvetica,sans-Serif" font-size="10.00">resolve_and_parse_include</text>
</a>
</g>
</g>
<!-- Node22&#45;&gt;Node25 -->
<g id="edge29_Node000022_Node000025" class="edge">
<title>Node22&#45;&gt;Node25</title>
<g id="a_edge29_Node000022_Node000025"><a xlink:title=" ">
<path fill="none" stroke="#63b8ff" d="M1240.39,-439.39C1251.38,-438.98 1263.49,-438.77 1275.64,-438.75"/>
<polygon fill="#63b8ff" stroke="#63b8ff" points="1275.82,-442.25 1285.83,-438.78 1275.84,-435.25 1275.82,-442.25"/>
</a>
</g>
</g>
<!-- Node24&#45;&gt;Node19 -->
<g id="edge28_Node000024_Node000019" class="edge">
<title>Node24&#45;&gt;Node19</title>
<g id="a_edge28_Node000024_Node000019"><a xlink:title=" ">
<path fill="none" stroke="#63b8ff" d="M1416.02,-522.02C1473.9,-522.58 1564.73,-523.45 1621.87,-524"/>
<polygon fill="#63b8ff" stroke="#63b8ff" points="1622.1,-527.5 1632.13,-524.09 1622.17,-520.5 1622.1,-527.5"/>
</a>
</g>
</g>
<!-- Node25&#45;&gt;Node6 -->
<g id="edge37_Node000025_Node000006" class="edge">
<title>Node25&#45;&gt;Node6</title>
<g id="a_edge37_Node000025_Node000006"><a xlink:title=" ">
<path fill="none" stroke="#63b8ff" d="M1413.57,-435.95C1421.04,-433.48 1428.41,-430.38 1435,-426.5 1455.04,-414.69 1451.08,-400.52 1471,-388.5 1496.92,-372.87 1573.96,-353.71 1625.46,-342.06"/>
<polygon fill="#63b8ff" stroke="#63b8ff" points="1626.41,-345.44 1635.4,-339.83 1624.88,-338.61 1626.41,-345.44"/>
</a>
</g>
</g>
<!-- Node25&#45;&gt;Node15 -->
<g id="edge30_Node000025_Node000015" class="edge">
<title>Node25&#45;&gt;Node15</title>
<g id="a_edge30_Node000025_Node000015"><a xlink:title=" ">
<path fill="none" stroke="#63b8ff" d="M1418.82,-435.95C1424.64,-433.48 1430.17,-430.38 1435,-426.5 1462.57,-404.33 1445.44,-379.96 1471,-355.5 1475.01,-351.66 1479.75,-348.36 1484.71,-345.55"/>
<polygon fill="#63b8ff" stroke="#63b8ff" points="1486.41,-348.61 1493.78,-341 1483.27,-342.36 1486.41,-348.61"/>
</a>
</g>
</g>
<!-- Node25&#45;&gt;Node20 -->
<g id="edge34_Node000025_Node000020" class="edge">
<title>Node25&#45;&gt;Node20</title>
<g id="a_edge34_Node000025_Node000020"><a xlink:title=" ">
<path fill="none" stroke="#63b8ff" d="M1402.51,-455.09C1425.62,-460.49 1454.56,-467.26 1478.39,-472.83"/>
<polygon fill="#63b8ff" stroke="#63b8ff" points="1477.72,-476.27 1488.26,-475.14 1479.32,-469.46 1477.72,-476.27"/>
</a>
</g>
</g>
<!-- Node25&#45;&gt;Node21 -->
<g id="edge35_Node000025_Node000021" class="edge">
<title>Node25&#45;&gt;Node21</title>
<g id="a_edge35_Node000025_Node000021"><a xlink:title=" ">
<path fill="none" stroke="#63b8ff" d="M1435.28,-449.98C1486.51,-453.09 1554.34,-457.21 1604.69,-460.26"/>
<polygon fill="#63b8ff" stroke="#63b8ff" points="1604.64,-463.77 1614.83,-460.88 1605.07,-456.78 1604.64,-463.77"/>
</a>
</g>
</g>
<!-- Node25&#45;&gt;Node22 -->
<g id="edge36_Node000025_Node000022" class="edge">
<title>Node25&#45;&gt;Node22</title>
<g id="a_edge36_Node000025_Node000022"><a xlink:title=" ">
<path fill="none" stroke="#63b8ff" d="M1285.83,-452.22C1273.98,-452.31 1261.89,-452.21 1250.55,-451.92"/>
<polygon fill="#63b8ff" stroke="#63b8ff" points="1250.49,-448.42 1240.39,-451.61 1250.27,-455.42 1250.49,-448.42"/>
</a>
</g>
</g>
<!-- Node26 -->
<g id="Node000026" class="node">
<title>Node26</title>
<g id="a_Node000026"><a xlink:href="shader_8c.html#af175eada3763b4ece51e0344ee4a0da0" target="_top" xlink:title=" ">
<polygon fill="white" stroke="#666666" points="1578,-417 1472,-417 1472,-398 1578,-398 1578,-417"/>
<text text-anchor="middle" x="1525" y="-405" font-family="Helvetica,sans-Serif" font-size="10.00">get_dir_from_path</text>
</a>
</g>
</g>
<!-- Node25&#45;&gt;Node26 -->
<g id="edge31_Node000025_Node000026" class="edge">
<title>Node25&#45;&gt;Node26</title>
<g id="a_edge31_Node000025_Node000026"><a xlink:title=" ">
<path fill="none" stroke="#63b8ff" d="M1402.51,-435.91C1424.05,-430.87 1450.63,-424.66 1473.44,-419.32"/>
<polygon fill="#63b8ff" stroke="#63b8ff" points="1474.35,-422.71 1483.29,-417.02 1472.75,-415.89 1474.35,-422.71"/>
</a>
</g>
</g>
<!-- Node26&#45;&gt;Node6 -->
<g id="edge33_Node000026_Node000006" class="edge">
<title>Node26&#45;&gt;Node6</title>
<g id="a_edge33_Node000026_Node000006"><a xlink:title=" ">
<path fill="none" stroke="#63b8ff" d="M1548.09,-397.93C1557.67,-393.67 1568.96,-388.5 1579,-383.5 1603,-371.55 1629.76,-356.86 1648.83,-346.14"/>
<polygon fill="#63b8ff" stroke="#63b8ff" points="1650.8,-349.05 1657.79,-341.08 1647.36,-342.95 1650.8,-349.05"/>
</a>
</g>
</g>
<!-- Node26&#45;&gt;Node19 -->
<g id="edge32_Node000026_Node000019" class="edge">
<title>Node26&#45;&gt;Node19</title>
<g id="a_edge32_Node000026_Node000019"><a xlink:title=" ">
<path fill="none" stroke="#63b8ff" d="M1536.66,-417.23C1553.06,-432.06 1585.67,-460.97 1615,-483.5 1626.62,-492.42 1640.02,-501.74 1651.16,-509.23"/>
<polygon fill="#63b8ff" stroke="#63b8ff" points="1649.26,-512.18 1659.53,-514.8 1653.14,-506.35 1649.26,-512.18"/>
</a>
</g>
</g>
<!-- Node27&#45;&gt;Node7 -->
<g id="edge47_Node000027_Node000007" class="edge">
<title>Node27&#45;&gt;Node7</title>
<g id="a_edge47_Node000027_Node000007"><a xlink:title=" ">
<path fill="none" stroke="#63b8ff" d="M597.81,-72.05C616.01,-73.93 635.7,-75.97 653.36,-77.8"/>
<polygon fill="#63b8ff" stroke="#63b8ff" points="653.19,-81.3 663.49,-78.84 653.91,-74.33 653.19,-81.3"/>
</a>
</g>
</g>
<!-- Node28 -->
<g id="Node000028" class="node">
<title>Node28</title>
<g id="a_Node000028"><a xlink:href="postprocess_8c.html#af9ffdf20fb030aea3399700fc094f1c1" target="_top" xlink:title=" ">
<polygon fill="white" stroke="#666666" points="765,-19 654,-19 654,0 765,0 765,-19"/>
<text text-anchor="middle" x="709.5" y="-7" font-family="Helvetica,sans-Serif" font-size="10.00">is_shader_in_cache</text>
</a>
</g>
</g>
<!-- Node27&#45;&gt;Node28 -->
<g id="edge41_Node000027_Node000028" class="edge">
<title>Node27&#45;&gt;Node28</title>
<g id="a_edge41_Node000027_Node000028"><a xlink:title=" ">
<path fill="none" stroke="#63b8ff" d="M559.69,-55.85C581.15,-47.79 612.88,-36.25 641,-27.5 647.38,-25.51 654.14,-23.55 660.82,-21.69"/>
<polygon fill="#63b8ff" stroke="#63b8ff" points="661.78,-25.06 670.5,-19.05 659.93,-18.3 661.78,-25.06"/>
</a>
</g>
</g>
<!-- Node29 -->
<g id="Node000029" class="node">
<title>Node29</title>
<g id="a_Node000029"><a xlink:href="postprocess_8c.html#ad37e66750c245e76eacbbfacfdfa2464" target="_top" xlink:title="Sets sampler uniform → texture unit bindings on the postprocess shader. These are program state (not ...">
<polygon fill="white" stroke="#666666" points="778,-56 641,-56 641,-37 778,-37 778,-56"/>
<text text-anchor="middle" x="709.5" y="-44" font-family="Helvetica,sans-Serif" font-size="10.00">setup_sampler_uniforms</text>
</a>
</g>
</g>
<!-- Node27&#45;&gt;Node29 -->
<g id="edge42_Node000027_Node000029" class="edge">
<title>Node27&#45;&gt;Node29</title>
<g id="a_edge42_Node000027_Node000029"><a xlink:title=" ">
<path fill="none" stroke="#63b8ff" d="M597.81,-58.59C608.52,-57.42 619.75,-56.19 630.79,-54.99"/>
<polygon fill="#63b8ff" stroke="#63b8ff" points="631.28,-58.45 640.84,-53.89 630.52,-51.49 631.28,-58.45"/>
</a>
</g>
</g>
<!-- Node30 -->
<g id="Node000030" class="node">
<title>Node30</title>
<g id="a_Node000030"><a xlink:href="shader_8c.html#a461b117efc5c86ee8eabf8f80789ec32" target="_top" xlink:title=" ">
<polygon fill="white" stroke="#666666" points="918,-93 830,-93 830,-74 918,-74 918,-93"/>
<text text-anchor="middle" x="874" y="-81" font-family="Helvetica,sans-Serif" font-size="10.00">shader_set_int</text>
</a>
</g>
</g>
<!-- Node29&#45;&gt;Node30 -->
<g id="edge43_Node000029_Node000030" class="edge">
<title>Node29&#45;&gt;Node30</title>
<g id="a_edge43_Node000029_Node000030"><a xlink:title=" ">
<path fill="none" stroke="#63b8ff" d="M752.35,-56.03C773.31,-60.8 798.88,-66.62 821.08,-71.68"/>
<polygon fill="#63b8ff" stroke="#63b8ff" points="820.48,-75.13 831.01,-73.94 822.04,-68.31 820.48,-75.13"/>
</a>
</g>
</g>
<!-- Node32 -->
<g id="Node000032" class="node">
<title>Node32</title>
<g id="a_Node000032"><a xlink:href="shader_8c.html#ad80a771bc794ef6b652f13449129b645" target="_top" xlink:title="Activates the program for subsequent draw calls (glUseProgram).">
<polygon fill="white" stroke="#666666" points="910,-56 838,-56 838,-37 910,-37 910,-56"/>
<text text-anchor="middle" x="874" y="-44" font-family="Helvetica,sans-Serif" font-size="10.00">shader_use</text>
</a>
</g>
</g>
<!-- Node29&#45;&gt;Node32 -->
<g id="edge46_Node000029_Node000032" class="edge">
<title>Node29&#45;&gt;Node32</title>
<g id="a_edge46_Node000029_Node000032"><a xlink:title=" ">
<path fill="none" stroke="#63b8ff" d="M778,-46.5C794.72,-46.5 812.24,-46.5 827.62,-46.5"/>
<polygon fill="#63b8ff" stroke="#63b8ff" points="827.89,-50 837.89,-46.5 827.89,-43 827.89,-50"/>
</a>
</g>
</g>
<!-- Node31 -->
<g id="Node000031" class="node">
<title>Node31</title>
<g id="a_Node000031"><a xlink:href="shader_8c.html#a82b9361a8e17eeb1635a867b925a1b6c" target="_top" xlink:title="Retrieves a uniform location via binary search on the cache.">
<polygon fill="white" stroke="#666666" points="1093,-98.5 979,-98.5 979,-68.5 1093,-68.5 1093,-98.5"/>
<text text-anchor="start" x="987" y="-86.5" font-family="Helvetica,sans-Serif" font-size="10.00">shader_get_uniform</text>
<text text-anchor="middle" x="1036" y="-75.5" font-family="Helvetica,sans-Serif" font-size="10.00">_location</text>
</a>
</g>
</g>
<!-- Node30&#45;&gt;Node31 -->
<g id="edge44_Node000030_Node000031" class="edge">
<title>Node30&#45;&gt;Node31</title>
<g id="a_edge44_Node000030_Node000031"><a xlink:title=" ">
<path fill="none" stroke="#63b8ff" d="M918.3,-83.5C933.7,-83.5 951.43,-83.5 968.33,-83.5"/>
<polygon fill="#63b8ff" stroke="#63b8ff" points="968.72,-87 978.72,-83.5 968.72,-80 968.72,-87"/>
</a>
</g>
</g>
<!-- Node31&#45;&gt;Node11 -->
<g id="edge45_Node000031_Node000011" class="edge">
<title>Node31&#45;&gt;Node11</title>
<g id="a_edge45_Node000031_Node000011"><a xlink:title=" ">
<path fill="none" stroke="#63b8ff" d="M1093.32,-91.44C1104.52,-93.02 1116.38,-94.69 1127.85,-96.31"/>
<polygon fill="#63b8ff" stroke="#63b8ff" points="1127.42,-99.79 1137.81,-97.72 1128.39,-92.85 1127.42,-99.79"/>
</a>
</g>
</g>
</g>
</svg>

<g id="navigator" transform="translate(0 0)" fill="#404254">
  <rect fill="#f2f5e9" fill-opacity="0.5" stroke="#606060" stroke-width=".5" x="0" y="0" width="60" height="60"/>
  <use id="zoomplus" xlink:href="#zoomPlus" x="17" y="9" onmousedown="handleZoom(evt,'in')"/>
  <use id="zoomminus" xlink:href="#zoomMin" x="42" y="9" onmousedown="handleZoom(evt,'out')"/>
  <use id="reset" xlink:href="#resetDef" x="30" y="36" onmousedown="handleReset()"/>
   <use id="arrowup" xlink:href="#arrowUp" x="0" y="0" onmousedown="handlePan(0,-1)"/>
  <use id="arrowright" xlink:href="#arrowRight" x="0" y="0" onmousedown="handlePan(1,0)"/>
  <use id="arrowdown" xlink:href="#arrowDown" x="0" y="0" onmousedown="handlePan(0,1)"/>
  <use id="arrowleft" xlink:href="#arrowLeft" x="0" y="0" onmousedown="handlePan(-1,0)"/>
</g>
<svg viewBox="0 0 15 15" width="100%" height="30px" preserveAspectRatio="xMaxYMin meet">
 <g id="arrow_out" transform="scale(0.3 0.3)">
  <a xlink:href="postprocess_8h_a881dafb2be086301f57008f8c73f545b_cgraph_org.svg" target="_base">
   <rect id="button" ry="5" rx="5" y="6" x="6" height="38" width="38"
        fill="#f2f5e9" fill-opacity="0.5" stroke="#606060" stroke-width="1.0"/>
   <path id="arrow"
     d="M 11.500037,31.436501 C 11.940474,20.09759 22.043105,11.32322 32.158766,21.979434 L 37.068811,17.246167 C 37.068811,17.246167 37.088388,32 37.088388,32 L 22.160133,31.978069 C 22.160133,31.978069 26.997745,27.140456 26.997745,27.140456 C 18.528582,18.264221 13.291696,25.230495 11.500037,31.436501 z"
     style="fill:#404040;"/>
  </a>
 </g>
</svg>

<style type='text/css'>
<![CDATA[
[data-mouse-over-selected='false'] { opacity: 0.7; }
[data-mouse-over-selected='true']  { opacity: 1.0; }
]]>
</style>
<script type="application/ecmascript"><![CDATA[
document.addEventListener('DOMContentLoaded', (event) => {
  highlightEdges();
  highlightAdjacentNodes();
});
]]></script>
</svg>
