<?xml version="1.0" encoding="UTF-8" standalone="no"?>
<!DOCTYPE svg PUBLIC "-//W3C//DTD SVG 1.1//EN"
 "http://www.w3.org/Graphics/SVG/1.1/DTD/svg11.dtd">
<!-- Generated by graphviz version 2.43.0 (0)
 -->
<!-- Title: handle_exposure_input Pages: 1 -->
<svg width="435pt" height="104pt"
 viewBox="0.00 0.00 435.00 104.00" xmlns="http://www.w3.org/2000/svg" xmlns:xlink="http://www.w3.org/1999/xlink">
<g id="graph0" class="graph" transform="scale(1 1) rotate(0) translate(4 100)">
<title>handle_exposure_input</title>
<polygon fill="white" stroke="transparent" points="-4,4 -4,-100 431,-100 431,4 -4,4"/>
<!-- Node1 -->
<g id="node1" class="node">
<title>Node1</title>
<g id="a_node1"><a xlink:title=" ">
<polygon fill="#bfbfbf" stroke="black" points="0,-38.5 0,-57.5 130,-57.5 130,-38.5 0,-38.5"/>
<text text-anchor="middle" x="65" y="-45.5" font-family="Helvetica,sans-Serif" font-size="10.00">handle_exposure_input</text>
</a>
</g>
</g>
<!-- Node2 -->
<g id="node2" class="node">
<title>Node2</title>
<g id="a_node2"><a xlink:href="action__notifier_8h.html#a8facec5ee2a33b00e3a12b03fb75c378" target="_top" xlink:title="Adds a new notification message.">
<polygon fill="white" stroke="black" points="181.5,-76.5 181.5,-95.5 296.5,-95.5 296.5,-76.5 181.5,-76.5"/>
<text text-anchor="middle" x="239" y="-83.5" font-family="Helvetica,sans-Serif" font-size="10.00">action_notifier_push</text>
</a>
</g>
</g>
<!-- Node1&#45;&gt;Node2 -->
<g id="edge1" class="edge">
<title>Node1&#45;&gt;Node2</title>
<path fill="none" stroke="midnightblue" d="M109.4,-57.59C132.41,-62.67 160.85,-68.96 185.13,-74.32"/>
<polygon fill="midnightblue" stroke="midnightblue" points="184.39,-77.74 194.91,-76.48 185.9,-70.91 184.39,-77.74"/>
</g>
<!-- Node4 -->
<g id="node4" class="node">
<title>Node4</title>
<g id="a_node4"><a xlink:href="postprocess__setters_8h.html#a791edfadb846c4f16be12dad6e4c2a6a" target="_top" xlink:title=" ">
<polygon fill="white" stroke="black" points="166,-38.5 166,-57.5 312,-57.5 312,-38.5 166,-38.5"/>
<text text-anchor="middle" x="239" y="-45.5" font-family="Helvetica,sans-Serif" font-size="10.00">postprocess_set_exposure</text>
</a>
</g>
</g>
<!-- Node1&#45;&gt;Node4 -->
<g id="edge3" class="edge">
<title>Node1&#45;&gt;Node4</title>
<path fill="none" stroke="midnightblue" d="M130.05,-48C138.42,-48 147.09,-48 155.72,-48"/>
<polygon fill="midnightblue" stroke="midnightblue" points="155.8,-51.5 165.8,-48 155.8,-44.5 155.8,-51.5"/>
</g>
<!-- Node5 -->
<g id="node5" class="node">
<title>Node5</title>
<g id="a_node5"><a xlink:href="utils_8h.html#a6d506638d7043eb273a2a357591d3086" target="_top" xlink:title="Safe wrapper around vsnprintf to format strings with bounds checking.">
<polygon fill="white" stroke="black" points="199,-0.5 199,-19.5 279,-19.5 279,-0.5 199,-0.5"/>
<text text-anchor="middle" x="239" y="-7.5" font-family="Helvetica,sans-Serif" font-size="10.00">safe_snprintf</text>
</a>
</g>
</g>
<!-- Node1&#45;&gt;Node5 -->
<g id="edge4" class="edge">
<title>Node1&#45;&gt;Node5</title>
<path fill="none" stroke="midnightblue" d="M109.4,-38.41C133.54,-33.08 163.68,-26.42 188.7,-20.89"/>
<polygon fill="midnightblue" stroke="midnightblue" points="189.72,-24.25 198.73,-18.68 188.21,-17.42 189.72,-24.25"/>
</g>
<!-- Node3 -->
<g id="node3" class="node">
<title>Node3</title>
<g id="a_node3"><a xlink:href="utils_8h.html#a9bdebcf7f8b13e9a0d4e0d96e8f3b075" target="_top" xlink:title="Safe wrapper around strncpy to ensure null&#45;termination.">
<polygon fill="white" stroke="black" points="348,-76.5 348,-95.5 427,-95.5 427,-76.5 348,-76.5"/>
<text text-anchor="middle" x="387.5" y="-83.5" font-family="Helvetica,sans-Serif" font-size="10.00">safe_strncpy</text>
</a>
</g>
</g>
<!-- Node2&#45;&gt;Node3 -->
<g id="edge2" class="edge">
<title>Node2&#45;&gt;Node3</title>
<path fill="none" stroke="midnightblue" d="M296.64,-86C310.11,-86 324.37,-86 337.47,-86"/>
<polygon fill="midnightblue" stroke="midnightblue" points="337.68,-89.5 347.68,-86 337.68,-82.5 337.68,-89.5"/>
</g>
</g>
</svg>
