<?xml version="1.0" encoding="UTF-8" standalone="no"?>
<!DOCTYPE svg PUBLIC "-//W3C//DTD SVG 1.1//EN"
 "http://www.w3.org/Graphics/SVG/1.1/DTD/svg11.dtd">
<!-- Generated by graphviz version 2.43.0 (0)
 -->
<!-- Title: include/app.h Pages: 1 -->
<svg width="477pt" height="252pt"
 viewBox="0.00 0.00 477.00 252.00" xmlns="http://www.w3.org/2000/svg" xmlns:xlink="http://www.w3.org/1999/xlink">
<g id="graph0" class="graph" transform="scale(1 1) rotate(0) translate(4 248)">
<title>include/app.h</title>
<polygon fill="white" stroke="transparent" points="-4,4 -4,-248 473,-248 473,4 -4,4"/>
<!-- Node1 -->
<g id="node1" class="node">
<title>Node1</title>
<g id="a_node1"><a xlink:title=" ">
<polygon fill="#bfbfbf" stroke="black" points="172.5,-224.5 172.5,-243.5 254.5,-243.5 254.5,-224.5 172.5,-224.5"/>
<text text-anchor="middle" x="213.5" y="-231.5" font-family="Helvetica,sans-Serif" font-size="10.00">include/app.h</text>
</a>
</g>
</g>
<!-- Node2 -->
<g id="node2" class="node">
<title>Node2</title>
<g id="a_node2"><a xlink:href="action__notifier_8h.html" target="_top" xlink:title="Temporary on&#45;screen notification system for user actions.">
<polygon fill="white" stroke="black" points="128,-168.5 128,-187.5 223,-187.5 223,-168.5 128,-168.5"/>
<text text-anchor="middle" x="175.5" y="-175.5" font-family="Helvetica,sans-Serif" font-size="10.00">action_notifier.h</text>
</a>
</g>
</g>
<!-- Node1&#45;&gt;Node2 -->
<g id="edge1" class="edge">
<title>Node1&#45;&gt;Node2</title>
<path fill="none" stroke="midnightblue" d="M207.23,-224.08C201.86,-216.46 193.98,-205.26 187.42,-195.94"/>
<polygon fill="midnightblue" stroke="midnightblue" points="190.28,-193.91 181.66,-187.75 184.55,-197.94 190.28,-193.91"/>
</g>
<!-- Node4 -->
<g id="node4" class="node">
<title>Node4</title>
<g id="a_node4"><a xlink:href="gl__common_8h.html" target="_top" xlink:title="Common OpenGL definitions, RAII helpers, and utilities.">
<polygon fill="white" stroke="black" points="88,-56.5 88,-75.5 171,-75.5 171,-56.5 88,-56.5"/>
<text text-anchor="middle" x="129.5" y="-63.5" font-family="Helvetica,sans-Serif" font-size="10.00">gl_common.h</text>
</a>
</g>
</g>
<!-- Node1&#45;&gt;Node4 -->
<g id="edge16" class="edge">
<title>Node1&#45;&gt;Node4</title>
<path fill="none" stroke="midnightblue" d="M180.7,-224.41C158.7,-217.4 130.08,-205.7 109.5,-188 87.25,-168.86 82.59,-160.21 74.5,-132 72.05,-123.46 70.69,-120.03 74.5,-112 80.63,-99.07 92.49,-88.62 103.64,-81.05"/>
<polygon fill="midnightblue" stroke="midnightblue" points="105.69,-83.9 112.3,-75.61 101.97,-77.97 105.69,-83.9"/>
</g>
<!-- Node9 -->
<g id="node9" class="node">
<title>Node9</title>
<g id="a_node9"><a xlink:title=" ">
<polygon fill="white" stroke="#bfbfbf" points="193,-56.5 193,-75.5 270,-75.5 270,-56.5 193,-56.5"/>
<text text-anchor="middle" x="231.5" y="-63.5" font-family="Helvetica,sans-Serif" font-size="10.00">cglm/cglm.h</text>
</a>
</g>
</g>
<!-- Node1&#45;&gt;Node9 -->
<g id="edge17" class="edge">
<title>Node1&#45;&gt;Node9</title>
<path fill="none" stroke="midnightblue" d="M218.12,-224.34C222.56,-215.49 228.95,-201.22 231.5,-188 238.36,-152.37 235.96,-109.73 233.68,-85.77"/>
<polygon fill="midnightblue" stroke="midnightblue" points="237.14,-85.19 232.61,-75.61 230.18,-85.93 237.14,-85.19"/>
</g>
<!-- Node10 -->
<g id="node10" class="node">
<title>Node10</title>
<g id="a_node10"><a xlink:href="app__ui_8h.html" target="_top" xlink:title="UI rendering module for the application.">
<polygon fill="white" stroke="black" points="279.5,-168.5 279.5,-187.5 337.5,-187.5 337.5,-168.5 279.5,-168.5"/>
<text text-anchor="middle" x="308.5" y="-175.5" font-family="Helvetica,sans-Serif" font-size="10.00">app_ui.h</text>
</a>
</g>
</g>
<!-- Node1&#45;&gt;Node10 -->
<g id="edge9" class="edge">
<title>Node1&#45;&gt;Node10</title>
<path fill="none" stroke="midnightblue" d="M228.76,-224.32C243.72,-215.82 266.75,-202.73 284.23,-192.8"/>
<polygon fill="midnightblue" stroke="midnightblue" points="286.31,-195.64 293.27,-187.65 282.85,-189.55 286.31,-195.64"/>
</g>
<!-- Node11 -->
<g id="node11" class="node">
<title>Node11</title>
<g id="a_node11"><a xlink:href="app__window_8h.html" target="_top" xlink:title=" ">
<polygon fill="white" stroke="black" points="83.5,-112.5 83.5,-131.5 169.5,-131.5 169.5,-112.5 83.5,-112.5"/>
<text text-anchor="middle" x="126.5" y="-119.5" font-family="Helvetica,sans-Serif" font-size="10.00">app_window.h</text>
</a>
</g>
</g>
<!-- Node1&#45;&gt;Node11 -->
<g id="edge12" class="edge">
<title>Node1&#45;&gt;Node11</title>
<path fill="none" stroke="midnightblue" d="M172.45,-224.38C152.54,-217.92 130.41,-206.81 118.5,-188 109.68,-174.07 113.42,-155.06 118.32,-141.2"/>
<polygon fill="midnightblue" stroke="midnightblue" points="121.63,-142.35 122.11,-131.77 115.13,-139.75 121.63,-142.35"/>
</g>
<!-- Node12 -->
<g id="node12" class="node">
<title>Node12</title>
<g id="a_node12"><a xlink:href="effect__benchmark_8h.html" target="_top" xlink:title="Automated A/B GPU cost measurement for individual postprocess effects.">
<polygon fill="white" stroke="black" points="356,-168.5 356,-187.5 469,-187.5 469,-168.5 356,-168.5"/>
<text text-anchor="middle" x="412.5" y="-175.5" font-family="Helvetica,sans-Serif" font-size="10.00">effect_benchmark.h</text>
</a>
</g>
</g>
<!-- Node1&#45;&gt;Node12 -->
<g id="edge14" class="edge">
<title>Node1&#45;&gt;Node12</title>
<path fill="none" stroke="midnightblue" d="M245.03,-224.44C279.09,-215.2 333.51,-200.44 371.02,-190.26"/>
<polygon fill="midnightblue" stroke="midnightblue" points="372.38,-193.51 381.12,-187.52 370.55,-186.76 372.38,-193.51"/>
</g>
<!-- Node3 -->
<g id="node3" class="node">
<title>Node3</title>
<g id="a_node3"><a xlink:href="ui_8h.html" target="_top" xlink:title="Minimal immediate&#45;mode User Interface (UI) library.">
<polygon fill="white" stroke="black" points="188,-112.5 188,-131.5 223,-131.5 223,-112.5 188,-112.5"/>
<text text-anchor="middle" x="205.5" y="-119.5" font-family="Helvetica,sans-Serif" font-size="10.00">ui.h</text>
</a>
</g>
</g>
<!-- Node2&#45;&gt;Node3 -->
<g id="edge2" class="edge">
<title>Node2&#45;&gt;Node3</title>
<path fill="none" stroke="midnightblue" d="M180.45,-168.08C184.6,-160.61 190.65,-149.72 195.77,-140.52"/>
<polygon fill="midnightblue" stroke="midnightblue" points="198.84,-142.19 200.64,-131.75 192.72,-138.79 198.84,-142.19"/>
</g>
<!-- Node3&#45;&gt;Node4 -->
<g id="edge3" class="edge">
<title>Node3&#45;&gt;Node4</title>
<path fill="none" stroke="midnightblue" d="M193.29,-112.32C181.72,-104.11 164.12,-91.6 150.34,-81.81"/>
<polygon fill="midnightblue" stroke="midnightblue" points="152.11,-78.77 141.93,-75.83 148.06,-84.48 152.11,-78.77"/>
</g>
<!-- Node3&#45;&gt;Node9 -->
<g id="edge8" class="edge">
<title>Node3&#45;&gt;Node9</title>
<path fill="none" stroke="midnightblue" d="M209.79,-112.08C213.35,-104.69 218.52,-93.95 222.92,-84.81"/>
<polygon fill="midnightblue" stroke="midnightblue" points="226.1,-86.28 227.29,-75.75 219.79,-83.24 226.1,-86.28"/>
</g>
<!-- Node5 -->
<g id="node5" class="node">
<title>Node5</title>
<g id="a_node5"><a xlink:title=" ">
<polygon fill="white" stroke="#bfbfbf" points="256,-0.5 256,-19.5 327,-19.5 327,-0.5 256,-0.5"/>
<text text-anchor="middle" x="291.5" y="-7.5" font-family="Helvetica,sans-Serif" font-size="10.00">glad/glad.h</text>
</a>
</g>
</g>
<!-- Node4&#45;&gt;Node5 -->
<g id="edge4" class="edge">
<title>Node4&#45;&gt;Node5</title>
<path fill="none" stroke="midnightblue" d="M155.17,-56.44C182.42,-47.36 225.68,-32.94 256.15,-22.78"/>
<polygon fill="midnightblue" stroke="midnightblue" points="257.57,-26 265.95,-19.52 255.36,-19.36 257.57,-26"/>
</g>
<!-- Node6 -->
<g id="node6" class="node">
<title>Node6</title>
<g id="a_node6"><a xlink:title=" ">
<polygon fill="white" stroke="#bfbfbf" points="0,-0.5 0,-19.5 83,-19.5 83,-0.5 0,-0.5"/>
<text text-anchor="middle" x="41.5" y="-7.5" font-family="Helvetica,sans-Serif" font-size="10.00">GLFW/glfw3.h</text>
</a>
</g>
</g>
<!-- Node4&#45;&gt;Node6 -->
<g id="edge5" class="edge">
<title>Node4&#45;&gt;Node6</title>
<path fill="none" stroke="midnightblue" d="M115.36,-56.32C101.63,-47.9 80.56,-34.97 64.44,-25.07"/>
<polygon fill="midnightblue" stroke="midnightblue" points="65.96,-21.9 55.6,-19.65 62.3,-27.87 65.96,-21.9"/>
</g>
<!-- Node7 -->
<g id="node7" class="node">
<title>Node7</title>
<g id="a_node7"><a xlink:title=" ">
<polygon fill="white" stroke="#bfbfbf" points="101.5,-0.5 101.5,-19.5 157.5,-19.5 157.5,-0.5 101.5,-0.5"/>
<text text-anchor="middle" x="129.5" y="-7.5" font-family="Helvetica,sans-Serif" font-size="10.00">stddef.h</text>
</a>
</g>
</g>
<!-- Node4&#45;&gt;Node7 -->
<g id="edge6" class="edge">
<title>Node4&#45;&gt;Node7</title>
<path fill="none" stroke="midnightblue" d="M129.5,-56.08C129.5,-49.01 129.5,-38.86 129.5,-29.99"/>
<polygon fill="midnightblue" stroke="midnightblue" points="133,-29.75 129.5,-19.75 126,-29.75 133,-29.75"/>
</g>
<!-- Node8 -->
<g id="node8" class="node">
<title>Node8</title>
<g id="a_node8"><a xlink:title=" ">
<polygon fill="white" stroke="#bfbfbf" points="176,-0.5 176,-19.5 229,-19.5 229,-0.5 176,-0.5"/>
<text text-anchor="middle" x="202.5" y="-7.5" font-family="Helvetica,sans-Serif" font-size="10.00">stdint.h</text>
</a>
</g>
</g>
<!-- Node4&#45;&gt;Node8 -->
<g id="edge7" class="edge">
<title>Node4&#45;&gt;Node8</title>
<path fill="none" stroke="midnightblue" d="M141.23,-56.32C152.34,-48.11 169.24,-35.6 182.48,-25.81"/>
<polygon fill="midnightblue" stroke="midnightblue" points="184.6,-28.59 190.56,-19.83 180.44,-22.97 184.6,-28.59"/>
</g>
<!-- Node10&#45;&gt;Node3 -->
<g id="edge11" class="edge">
<title>Node10&#45;&gt;Node3</title>
<path fill="none" stroke="midnightblue" d="M291.95,-168.32C275.51,-159.7 250.07,-146.36 231.03,-136.39"/>
<polygon fill="midnightblue" stroke="midnightblue" points="232.49,-133.2 222.01,-131.65 229.24,-139.4 232.49,-133.2"/>
</g>
<!-- Node10&#45;&gt;Node5 -->
<g id="edge10" class="edge">
<title>Node10&#45;&gt;Node5</title>
<path fill="none" stroke="midnightblue" d="M307.59,-168.08C304.91,-141.95 297.05,-65.21 293.4,-29.58"/>
<polygon fill="midnightblue" stroke="midnightblue" points="296.88,-29.16 292.38,-19.57 289.91,-29.87 296.88,-29.16"/>
</g>
<!-- Node11&#45;&gt;Node4 -->
<g id="edge13" class="edge">
<title>Node11&#45;&gt;Node4</title>
<path fill="none" stroke="midnightblue" d="M127,-112.08C127.39,-105.01 127.95,-94.86 128.45,-85.99"/>
<polygon fill="midnightblue" stroke="midnightblue" points="131.95,-85.93 129.01,-75.75 124.96,-85.54 131.95,-85.93"/>
</g>
<!-- Node13 -->
<g id="node13" class="node">
<title>Node13</title>
<g id="a_node13"><a xlink:title=" ">
<polygon fill="white" stroke="#bfbfbf" points="381.5,-112.5 381.5,-131.5 443.5,-131.5 443.5,-112.5 381.5,-112.5"/>
<text text-anchor="middle" x="412.5" y="-119.5" font-family="Helvetica,sans-Serif" font-size="10.00">stdbool.h</text>
</a>
</g>
</g>
<!-- Node12&#45;&gt;Node13 -->
<g id="edge15" class="edge">
<title>Node12&#45;&gt;Node13</title>
<path fill="none" stroke="midnightblue" d="M412.5,-168.08C412.5,-161.01 412.5,-150.86 412.5,-141.99"/>
<polygon fill="midnightblue" stroke="midnightblue" points="416,-141.75 412.5,-131.75 409,-141.75 416,-141.75"/>
</g>
</g>
</svg>
