<?xml version="1.0" encoding="UTF-8" standalone="no"?>
<!DOCTYPE svg PUBLIC "-//W3C//DTD SVG 1.1//EN"
 "http://www.w3.org/Graphics/SVG/1.1/DTD/svg11.dtd">
<!-- Generated by graphviz version 2.43.0 (0)
 -->
<!-- Title: src/ibl_coordinator.c Pages: 1 -->
<svg width="729pt" height="247pt"
 viewBox="0.00 0.00 729.00 247.00" xmlns="http://www.w3.org/2000/svg" xmlns:xlink="http://www.w3.org/1999/xlink">
<g id="graph0" class="graph" transform="scale(1 1) rotate(0) translate(4 243)">
<title>src/ibl_coordinator.c</title>
<!-- Node1 -->
<g id="Node000001" class="node">
<title>Node1</title>
<g id="a_Node000001"><a xlink:title="Implementation of the IBL generation state machine.">
<polygon fill="#999999" stroke="#666666" points="465.5,-239 351.5,-239 351.5,-220 465.5,-220 465.5,-239"/>
<text text-anchor="middle" x="408.5" y="-227" font-family="Helvetica,sans-Serif" font-size="10.00">src/ibl_coordinator.c</text>
</a>
</g>
</g>
<!-- Node2 -->
<g id="Node000002" class="node">
<title>Node2</title>
<g id="a_Node000002"><a xlink:href="ibl__coordinator_8h.html" target="_top" xlink:title="Coordinator for progressive Image&#45;Based Lighting (IBL) generation.">
<polygon fill="white" stroke="#666666" points="214.5,-184 116.5,-184 116.5,-165 214.5,-165 214.5,-184"/>
<text text-anchor="middle" x="165.5" y="-172" font-family="Helvetica,sans-Serif" font-size="10.00">ibl_coordinator.h</text>
</a>
</g>
</g>
<!-- Node1&#45;&gt;Node2 -->
<g id="edge1_Node000001_Node000002" class="edge">
<title>Node1&#45;&gt;Node2</title>
<g id="a_edge1_Node000001_Node000002"><a xlink:title=" ">
<path fill="none" stroke="#63b8ff" d="M369.46,-219.98C327.42,-210.82 260.46,-196.21 214.82,-186.26"/>
<polygon fill="#63b8ff" stroke="#63b8ff" points="215.36,-182.79 204.85,-184.08 213.87,-189.63 215.36,-182.79"/>
</a>
</g>
</g>
<!-- Node3 -->
<g id="Node000003" class="node">
<title>Node3</title>
<g id="a_Node000003"><a xlink:href="gl__common_8h.html" target="_top" xlink:title="Common OpenGL definitions, RAII helpers, and utilities.">
<polygon fill="white" stroke="#666666" points="124,-74 41,-74 41,-55 124,-55 124,-74"/>
<text text-anchor="middle" x="82.5" y="-62" font-family="Helvetica,sans-Serif" font-size="10.00">gl_common.h</text>
</a>
</g>
</g>
<!-- Node1&#45;&gt;Node3 -->
<g id="edge16_Node000001_Node000003" class="edge">
<title>Node1&#45;&gt;Node3</title>
<g id="a_edge16_Node000001_Node000003"><a xlink:title=" ">
<path fill="none" stroke="#63b8ff" d="M351.2,-226.24C271.14,-222.14 130.85,-211.21 88.5,-184 57.89,-164.33 43.14,-144.88 53.5,-110 56.48,-99.98 62.5,-90.11 68.29,-82.22"/>
<polygon fill="#63b8ff" stroke="#63b8ff" points="71.13,-84.28 74.56,-74.25 65.63,-79.95 71.13,-84.28"/>
</a>
</g>
</g>
<!-- Node7 -->
<g id="Node000007" class="node">
<title>Node7</title>
<g id="a_Node000007"><a xlink:title=" ">
<polygon fill="#e0e0e0" stroke="#999999" points="456,-19 403,-19 403,0 456,0 456,-19"/>
<text text-anchor="middle" x="429.5" y="-7" font-family="Helvetica,sans-Serif" font-size="10.00">stdint.h</text>
</a>
</g>
</g>
<!-- Node1&#45;&gt;Node7 -->
<g id="edge27_Node000001_Node000007" class="edge">
<title>Node1&#45;&gt;Node7</title>
<g id="a_edge27_Node000001_Node000007"><a xlink:title=" ">
<path fill="none" stroke="#63b8ff" d="M413.1,-219.76C421.72,-202.83 440.03,-164.1 446.5,-129 453.01,-93.71 443.01,-52.12 435.8,-28.78"/>
<polygon fill="#63b8ff" stroke="#63b8ff" points="439.09,-27.59 432.67,-19.16 432.44,-29.75 439.09,-27.59"/>
</a>
</g>
</g>
<!-- Node8 -->
<g id="Node000008" class="node">
<title>Node8</title>
<g id="a_Node000008"><a xlink:href="pbr_8h.html" target="_top" xlink:title="Physically&#45;Based Rendering (PBR) and Image&#45;Based Lighting (IBL) utilities.">
<polygon fill="white" stroke="#666666" points="103,-129 62,-129 62,-110 103,-110 103,-129"/>
<text text-anchor="middle" x="82.5" y="-117" font-family="Helvetica,sans-Serif" font-size="10.00">pbr.h</text>
</a>
</g>
</g>
<!-- Node1&#45;&gt;Node8 -->
<g id="edge18_Node000001_Node000008" class="edge">
<title>Node1&#45;&gt;Node8</title>
<g id="a_edge18_Node000001_Node000008"><a xlink:title=" ">
<path fill="none" stroke="#63b8ff" d="M351.31,-226.74C274.72,-223.28 144.21,-213.16 107.5,-184 93.75,-173.08 87.54,-153.52 84.75,-138.98"/>
<polygon fill="#63b8ff" stroke="#63b8ff" points="88.21,-138.42 83.21,-129.07 81.29,-139.49 88.21,-138.42"/>
</a>
</g>
</g>
<!-- Node9 -->
<g id="Node000009" class="node">
<title>Node9</title>
<g id="a_Node000009"><a xlink:href="perf__timer_8h.html" target="_top" xlink:title="High&#45;precision performance measurement (CPU and GPU).">
<polygon fill="white" stroke="#666666" points="235.5,-129 159.5,-129 159.5,-110 235.5,-110 235.5,-129"/>
<text text-anchor="middle" x="197.5" y="-117" font-family="Helvetica,sans-Serif" font-size="10.00">perf_timer.h</text>
</a>
</g>
</g>
<!-- Node1&#45;&gt;Node9 -->
<g id="edge19_Node000001_Node000009" class="edge">
<title>Node1&#45;&gt;Node9</title>
<g id="a_edge19_Node000001_Node000009"><a xlink:title=" ">
<path fill="none" stroke="#63b8ff" d="M373.52,-219.96C346.57,-212.59 308.9,-200.5 278.5,-184 254.12,-170.76 229.52,-150.23 213.93,-136.11"/>
<polygon fill="#63b8ff" stroke="#63b8ff" points="215.98,-133.24 206.26,-129.02 211.23,-138.38 215.98,-133.24"/>
</a>
</g>
</g>
<!-- Node12 -->
<g id="Node000012" class="node">
<title>Node12</title>
<g id="a_Node000012"><a xlink:href="app__settings_8h.html" target="_top" xlink:title="Global application constants, configuration macros, and default values.">
<polygon fill="white" stroke="#666666" points="375.5,-184 287.5,-184 287.5,-165 375.5,-165 375.5,-184"/>
<text text-anchor="middle" x="331.5" y="-172" font-family="Helvetica,sans-Serif" font-size="10.00">app_settings.h</text>
</a>
</g>
</g>
<!-- Node1&#45;&gt;Node12 -->
<g id="edge13_Node000001_Node000012" class="edge">
<title>Node1&#45;&gt;Node12</title>
<g id="a_edge13_Node000001_Node000012"><a xlink:title=" ">
<path fill="none" stroke="#63b8ff" d="M396.13,-219.98C384.41,-211.92 366.58,-199.65 352.61,-190.03"/>
<polygon fill="#63b8ff" stroke="#63b8ff" points="354.32,-186.96 344.1,-184.17 350.35,-192.72 354.32,-186.96"/>
</a>
</g>
</g>
<!-- Node14 -->
<g id="Node000014" class="node">
<title>Node14</title>
<g id="a_Node000014"><a xlink:href="log_8h.html" target="_top" xlink:title="Thread&#45;safe logging utility with timestamps and severity levels.">
<polygon fill="white" stroke="#666666" points="516,-184 475,-184 475,-165 516,-165 516,-184"/>
<text text-anchor="middle" x="495.5" y="-172" font-family="Helvetica,sans-Serif" font-size="10.00">log.h</text>
</a>
</g>
</g>
<!-- Node1&#45;&gt;Node14 -->
<g id="edge17_Node000001_Node000014" class="edge">
<title>Node1&#45;&gt;Node14</title>
<g id="a_edge17_Node000001_Node000014"><a xlink:title=" ">
<path fill="none" stroke="#63b8ff" d="M422.48,-219.98C435.97,-211.77 456.63,-199.18 472.54,-189.49"/>
<polygon fill="#63b8ff" stroke="#63b8ff" points="474.55,-192.36 481.27,-184.17 470.91,-186.38 474.55,-192.36"/>
</a>
</g>
</g>
<!-- Node15 -->
<g id="Node000015" class="node">
<title>Node15</title>
<g id="a_Node000015"><a xlink:href="utils_8h.html" target="_top" xlink:title="Zero&#45;overhead utility functions and RAII cleanup helpers.">
<polygon fill="white" stroke="#666666" points="437,-129 390,-129 390,-110 437,-110 437,-129"/>
<text text-anchor="middle" x="413.5" y="-117" font-family="Helvetica,sans-Serif" font-size="10.00">utils.h</text>
</a>
</g>
</g>
<!-- Node1&#45;&gt;Node15 -->
<g id="edge20_Node000001_Node000015" class="edge">
<title>Node1&#45;&gt;Node15</title>
<g id="a_edge20_Node000001_Node000015"><a xlink:title=" ">
<path fill="none" stroke="#63b8ff" d="M408.91,-219.66C409.72,-202.17 411.54,-162.8 412.63,-139.27"/>
<polygon fill="#63b8ff" stroke="#63b8ff" points="416.13,-139.31 413.1,-129.16 409.14,-138.99 416.13,-139.31"/>
</a>
</g>
</g>
<!-- Node18 -->
<g id="Node000018" class="node">
<title>Node18</title>
<g id="a_Node000018"><a xlink:title=" ">
<polygon fill="#e0e0e0" stroke="#999999" points="581,-184 534,-184 534,-165 581,-165 581,-184"/>
<text text-anchor="middle" x="557.5" y="-172" font-family="Helvetica,sans-Serif" font-size="10.00">float.h</text>
</a>
</g>
</g>
<!-- Node1&#45;&gt;Node18 -->
<g id="edge25_Node000001_Node000018" class="edge">
<title>Node1&#45;&gt;Node18</title>
<g id="a_edge25_Node000001_Node000018"><a xlink:title=" ">
<path fill="none" stroke="#63b8ff" d="M432.44,-219.98C457.2,-211.18 496.08,-197.35 523.91,-187.45"/>
<polygon fill="#63b8ff" stroke="#63b8ff" points="525.37,-190.64 533.62,-183.99 523.03,-184.05 525.37,-190.64"/>
</a>
</g>
</g>
<!-- Node19 -->
<g id="Node000019" class="node">
<title>Node19</title>
<g id="a_Node000019"><a xlink:title=" ">
<polygon fill="#e0e0e0" stroke="#999999" points="650,-184 599,-184 599,-165 650,-165 650,-184"/>
<text text-anchor="middle" x="624.5" y="-172" font-family="Helvetica,sans-Serif" font-size="10.00">math.h</text>
</a>
</g>
</g>
<!-- Node1&#45;&gt;Node19 -->
<g id="edge26_Node000001_Node000019" class="edge">
<title>Node1&#45;&gt;Node19</title>
<g id="a_edge26_Node000001_Node000019"><a xlink:title=" ">
<path fill="none" stroke="#63b8ff" d="M443.74,-219.94C478.41,-211.51 533.11,-198.17 589.15,-184.33"/>
<polygon fill="#63b8ff" stroke="#63b8ff" points="590.02,-187.72 598.88,-181.92 588.34,-180.92 590.02,-187.72"/>
</a>
</g>
</g>
<!-- Node20 -->
<g id="Node000020" class="node">
<title>Node20</title>
<g id="a_Node000020"><a xlink:title=" ">
<polygon fill="#e0e0e0" stroke="#999999" points="721,-184 668,-184 668,-165 721,-165 721,-184"/>
<text text-anchor="middle" x="694.5" y="-172" font-family="Helvetica,sans-Serif" font-size="10.00">string.h</text>
</a>
</g>
</g>
<!-- Node1&#45;&gt;Node20 -->
<g id="edge28_Node000001_Node000020" class="edge">
<title>Node1&#45;&gt;Node20</title>
<g id="a_edge28_Node000001_Node000020"><a xlink:title=" ">
<path fill="none" stroke="#63b8ff" d="M462.55,-219.93C511.32,-211.96 585.24,-199.32 658,-184.22"/>
<polygon fill="#63b8ff" stroke="#63b8ff" points="658.72,-187.65 667.79,-182.17 657.28,-180.79 658.72,-187.65"/>
</a>
</g>
</g>
<!-- Node2&#45;&gt;Node3 -->
<g id="edge2_Node000002_Node000003" class="edge">
<title>Node2&#45;&gt;Node3</title>
<g id="a_edge2_Node000002_Node000003"><a xlink:title=" ">
<path fill="none" stroke="#63b8ff" d="M158.71,-164.66C144.9,-146.69 113.35,-105.64 95.48,-82.38"/>
<polygon fill="#63b8ff" stroke="#63b8ff" points="98.02,-79.95 89.15,-74.16 92.47,-84.22 98.02,-79.95"/>
</a>
</g>
</g>
<!-- Node2&#45;&gt;Node8 -->
<g id="edge7_Node000002_Node000008" class="edge">
<title>Node2&#45;&gt;Node8</title>
<g id="a_edge7_Node000002_Node000008"><a xlink:title=" ">
<path fill="none" stroke="#63b8ff" d="M152.16,-164.98C139.41,-156.84 119.95,-144.41 104.83,-134.76"/>
<polygon fill="#63b8ff" stroke="#63b8ff" points="106.39,-131.6 96.08,-129.17 102.62,-137.5 106.39,-131.6"/>
</a>
</g>
</g>
<!-- Node2&#45;&gt;Node9 -->
<g id="edge9_Node000002_Node000009" class="edge">
<title>Node2&#45;&gt;Node9</title>
<g id="a_edge9_Node000002_Node000009"><a xlink:title=" ">
<path fill="none" stroke="#63b8ff" d="M170.78,-164.75C175.21,-157.42 181.66,-146.73 187.12,-137.7"/>
<polygon fill="#63b8ff" stroke="#63b8ff" points="190.14,-139.46 192.31,-129.09 184.15,-135.84 190.14,-139.46"/>
</a>
</g>
</g>
<!-- Node4 -->
<g id="Node000004" class="node">
<title>Node4</title>
<g id="a_Node000004"><a xlink:title=" ">
<polygon fill="#e0e0e0" stroke="#999999" points="71,-19 0,-19 0,0 71,0 71,-19"/>
<text text-anchor="middle" x="35.5" y="-7" font-family="Helvetica,sans-Serif" font-size="10.00">glad/glad.h</text>
</a>
</g>
</g>
<!-- Node3&#45;&gt;Node4 -->
<g id="edge3_Node000003_Node000004" class="edge">
<title>Node3&#45;&gt;Node4</title>
<g id="a_edge3_Node000003_Node000004"><a xlink:title=" ">
<path fill="none" stroke="#63b8ff" d="M74.74,-54.75C68.03,-47.18 58.16,-36.05 49.99,-26.84"/>
<polygon fill="#63b8ff" stroke="#63b8ff" points="52.37,-24.25 43.12,-19.09 47.13,-28.89 52.37,-24.25"/>
</a>
</g>
</g>
<!-- Node5 -->
<g id="Node000005" class="node">
<title>Node5</title>
<g id="a_Node000005"><a xlink:title=" ">
<polygon fill="#e0e0e0" stroke="#999999" points="172,-19 89,-19 89,0 172,0 172,-19"/>
<text text-anchor="middle" x="130.5" y="-7" font-family="Helvetica,sans-Serif" font-size="10.00">GLFW/glfw3.h</text>
</a>
</g>
</g>
<!-- Node3&#45;&gt;Node5 -->
<g id="edge4_Node000003_Node000005" class="edge">
<title>Node3&#45;&gt;Node5</title>
<g id="a_edge4_Node000003_Node000005"><a xlink:title=" ">
<path fill="none" stroke="#63b8ff" d="M90.43,-54.75C97.35,-47.11 107.57,-35.82 115.95,-26.56"/>
<polygon fill="#63b8ff" stroke="#63b8ff" points="118.6,-28.85 122.72,-19.09 113.41,-24.15 118.6,-28.85"/>
</a>
</g>
</g>
<!-- Node6 -->
<g id="Node000006" class="node">
<title>Node6</title>
<g id="a_Node000006"><a xlink:title=" ">
<polygon fill="#e0e0e0" stroke="#999999" points="338.5,-19 282.5,-19 282.5,0 338.5,0 338.5,-19"/>
<text text-anchor="middle" x="310.5" y="-7" font-family="Helvetica,sans-Serif" font-size="10.00">stddef.h</text>
</a>
</g>
</g>
<!-- Node3&#45;&gt;Node6 -->
<g id="edge5_Node000003_Node000006" class="edge">
<title>Node3&#45;&gt;Node6</title>
<g id="a_edge5_Node000003_Node000006"><a xlink:title=" ">
<path fill="none" stroke="#63b8ff" d="M119.13,-54.98C161.11,-45.23 229.6,-29.31 272.25,-19.39"/>
<polygon fill="#63b8ff" stroke="#63b8ff" points="273.29,-22.74 282.24,-17.07 271.71,-15.92 273.29,-22.74"/>
</a>
</g>
</g>
<!-- Node3&#45;&gt;Node7 -->
<g id="edge6_Node000003_Node000007" class="edge">
<title>Node3&#45;&gt;Node7</title>
<g id="a_edge6_Node000003_Node000007"><a xlink:title=" ">
<path fill="none" stroke="#63b8ff" d="M124.24,-56.49C127.37,-55.98 130.49,-55.48 133.5,-55 226.8,-40.21 336.85,-23.99 392.82,-15.82"/>
<polygon fill="#63b8ff" stroke="#63b8ff" points="393.55,-19.25 402.94,-14.35 392.54,-12.33 393.55,-19.25"/>
</a>
</g>
</g>
<!-- Node8&#45;&gt;Node3 -->
<g id="edge8_Node000008_Node000003" class="edge">
<title>Node8&#45;&gt;Node3</title>
<g id="a_edge8_Node000008_Node000003"><a xlink:title=" ">
<path fill="none" stroke="#63b8ff" d="M82.5,-109.75C82.5,-102.8 82.5,-92.85 82.5,-84.13"/>
<polygon fill="#63b8ff" stroke="#63b8ff" points="86,-84.09 82.5,-74.09 79,-84.09 86,-84.09"/>
</a>
</g>
</g>
<!-- Node9&#45;&gt;Node3 -->
<g id="edge10_Node000009_Node000003" class="edge">
<title>Node9&#45;&gt;Node3</title>
<g id="a_edge10_Node000009_Node000003"><a xlink:title=" ">
<path fill="none" stroke="#63b8ff" d="M179.02,-109.98C160.52,-101.46 131.82,-88.23 110.52,-78.41"/>
<polygon fill="#63b8ff" stroke="#63b8ff" points="111.86,-75.18 101.31,-74.17 108.93,-81.53 111.86,-75.18"/>
</a>
</g>
</g>
<!-- Node10 -->
<g id="Node000010" class="node">
<title>Node10</title>
<g id="a_Node000010"><a xlink:title=" ">
<polygon fill="#e0e0e0" stroke="#999999" points="270.5,-74 208.5,-74 208.5,-55 270.5,-55 270.5,-74"/>
<text text-anchor="middle" x="239.5" y="-62" font-family="Helvetica,sans-Serif" font-size="10.00">stdbool.h</text>
</a>
</g>
</g>
<!-- Node9&#45;&gt;Node10 -->
<g id="edge11_Node000009_Node000010" class="edge">
<title>Node9&#45;&gt;Node10</title>
<g id="a_edge11_Node000009_Node000010"><a xlink:title=" ">
<path fill="none" stroke="#63b8ff" d="M204.44,-109.75C210.37,-102.26 219.07,-91.28 226.32,-82.13"/>
<polygon fill="#63b8ff" stroke="#63b8ff" points="229.23,-84.1 232.69,-74.09 223.74,-79.75 229.23,-84.1"/>
</a>
</g>
</g>
<!-- Node11 -->
<g id="Node000011" class="node">
<title>Node11</title>
<g id="a_Node000011"><a xlink:title=" ">
<polygon fill="#e0e0e0" stroke="#999999" points="190.5,-74 142.5,-74 142.5,-55 190.5,-55 190.5,-74"/>
<text text-anchor="middle" x="166.5" y="-62" font-family="Helvetica,sans-Serif" font-size="10.00">time.h</text>
</a>
</g>
</g>
<!-- Node9&#45;&gt;Node11 -->
<g id="edge12_Node000009_Node000011" class="edge">
<title>Node9&#45;&gt;Node11</title>
<g id="a_edge12_Node000009_Node000011"><a xlink:title=" ">
<path fill="none" stroke="#63b8ff" d="M192.38,-109.75C188.14,-102.49 181.97,-91.95 176.72,-82.98"/>
<polygon fill="#63b8ff" stroke="#63b8ff" points="179.59,-80.95 171.52,-74.09 173.55,-84.49 179.59,-80.95"/>
</a>
</g>
</g>
<!-- Node12&#45;&gt;Node10 -->
<g id="edge15_Node000012_Node000010" class="edge">
<title>Node12&#45;&gt;Node10</title>
<g id="a_edge15_Node000012_Node000010"><a xlink:title=" ">
<path fill="none" stroke="#63b8ff" d="M320.69,-164.96C310.27,-156.45 294.4,-142.72 282.5,-129 269.87,-114.43 257.76,-96.02 249.63,-82.78"/>
<polygon fill="#63b8ff" stroke="#63b8ff" points="252.62,-80.95 244.47,-74.18 246.62,-84.55 252.62,-80.95"/>
</a>
</g>
</g>
<!-- Node13 -->
<g id="Node000013" class="node">
<title>Node13</title>
<g id="a_Node000013"><a xlink:title=" ">
<polygon fill="#e0e0e0" stroke="#999999" points="371.5,-129 291.5,-129 291.5,-110 371.5,-110 371.5,-129"/>
<text text-anchor="middle" x="331.5" y="-117" font-family="Helvetica,sans-Serif" font-size="10.00">cglm/types.h</text>
</a>
</g>
</g>
<!-- Node12&#45;&gt;Node13 -->
<g id="edge14_Node000012_Node000013" class="edge">
<title>Node12&#45;&gt;Node13</title>
<g id="a_edge14_Node000012_Node000013"><a xlink:title=" ">
<path fill="none" stroke="#63b8ff" d="M331.5,-164.75C331.5,-157.8 331.5,-147.85 331.5,-139.13"/>
<polygon fill="#63b8ff" stroke="#63b8ff" points="335,-139.09 331.5,-129.09 328,-139.09 335,-139.09"/>
</a>
</g>
</g>
<!-- Node15&#45;&gt;Node6 -->
<g id="edge22_Node000015_Node000006" class="edge">
<title>Node15&#45;&gt;Node6</title>
<g id="a_edge22_Node000015_Node000006"><a xlink:title=" ">
<path fill="none" stroke="#63b8ff" d="M417.53,-109.84C422.97,-96.77 430.74,-71.73 419.5,-55 403.77,-31.59 373.33,-20.49 348.61,-15.23"/>
<polygon fill="#63b8ff" stroke="#63b8ff" points="349.24,-11.78 338.77,-13.37 347.94,-18.66 349.24,-11.78"/>
</a>
</g>
</g>
<!-- Node15&#45;&gt;Node10 -->
<g id="edge21_Node000015_Node000010" class="edge">
<title>Node15&#45;&gt;Node10</title>
<g id="a_edge21_Node000015_Node000010"><a xlink:title=" ">
<path fill="none" stroke="#63b8ff" d="M389.67,-111.24C360.7,-102.42 311.45,-87.42 277.29,-77.01"/>
<polygon fill="#63b8ff" stroke="#63b8ff" points="278.23,-73.64 267.64,-74.07 276.19,-80.33 278.23,-73.64"/>
</a>
</g>
</g>
<!-- Node16 -->
<g id="Node000016" class="node">
<title>Node16</title>
<g id="a_Node000016"><a xlink:title=" ">
<polygon fill="#e0e0e0" stroke="#999999" points="338.5,-74 288.5,-74 288.5,-55 338.5,-55 338.5,-74"/>
<text text-anchor="middle" x="313.5" y="-62" font-family="Helvetica,sans-Serif" font-size="10.00">stdio.h</text>
</a>
</g>
</g>
<!-- Node15&#45;&gt;Node16 -->
<g id="edge23_Node000015_Node000016" class="edge">
<title>Node15&#45;&gt;Node16</title>
<g id="a_edge23_Node000015_Node000016"><a xlink:title=" ">
<path fill="none" stroke="#63b8ff" d="M397.43,-109.98C381.64,-101.61 357.28,-88.7 338.87,-78.95"/>
<polygon fill="#63b8ff" stroke="#63b8ff" points="340.33,-75.76 329.86,-74.17 337.06,-81.95 340.33,-75.76"/>
</a>
</g>
</g>
<!-- Node17 -->
<g id="Node000017" class="node">
<title>Node17</title>
<g id="a_Node000017"><a xlink:title=" ">
<polygon fill="#e0e0e0" stroke="#999999" points="410,-74 357,-74 357,-55 410,-55 410,-74"/>
<text text-anchor="middle" x="383.5" y="-62" font-family="Helvetica,sans-Serif" font-size="10.00">stdlib.h</text>
</a>
</g>
</g>
<!-- Node15&#45;&gt;Node17 -->
<g id="edge24_Node000015_Node000017" class="edge">
<title>Node15&#45;&gt;Node17</title>
<g id="a_edge24_Node000015_Node000017"><a xlink:title=" ">
<path fill="none" stroke="#63b8ff" d="M408.55,-109.75C404.44,-102.49 398.47,-91.95 393.4,-82.98"/>
<polygon fill="#63b8ff" stroke="#63b8ff" points="396.33,-81.07 388.36,-74.09 390.24,-84.52 396.33,-81.07"/>
</a>
</g>
</g>
</g>
</svg>
