<?xml version="1.0" encoding="UTF-8" standalone="no"?>
<!DOCTYPE svg PUBLIC "-//W3C//DTD SVG 1.1//EN"
 "http://www.w3.org/Graphics/SVG/1.1/DTD/svg11.dtd">
<!-- Generated by graphviz version 2.43.0 (0)
 -->
<!-- Title: AutoExposure Pages: 1 -->
<!--zoomable 737 -->

<svg id="main" version="1.1" xmlns="http://www.w3.org/2000/svg" xmlns:xlink="http://www.w3.org/1999/xlink" xml:space="preserve" onload="init(evt)">
<style type="text/css"><![CDATA[
.node, .edge {opacity: 0.7;}
.node.selected, .edge.selected {opacity: 1;}
.edge:hover path { stroke: red; }
.edge:hover polygon { stroke: red; fill: red; }
]]></style>

<defs>
  <circle id="rim" cx="0" cy="0" r="7"/>
  <circle id="rim2" cx="0" cy="0" r="3.5"/>
  <g id="zoomPlus">
    <use xlink:href="#rim" fill="#404040"><set attributeName="fill" to="#808080" begin="zoomplus.mouseover" end="zoomplus.mouseout"/></use>
    <path d="M-4,0h8M0,-4v8" fill="none" stroke="white" stroke-width="1.5" pointer-events="none"/>
  </g>
  <g id="zoomMin">
    <use xlink:href="#rim" fill="#404040"><set attributeName="fill" to="#808080" begin="zoomminus.mouseover" end="zoomminus.mouseout"/></use>
    <path d="M-4,0h8" fill="none" stroke="white" stroke-width="1.5" pointer-events="none"/>
  </g>
  <g id="arrowUp" transform="translate(30 24)">
    <use xlink:href="#rim"/>
    <path pointer-events="none" fill="none" stroke="white" stroke-width="1.5" d="M0,-3.0v7 M-2.5,-0.5L0,-3.0L2.5,-0.5"/>
  </g>
  <g id="arrowRight" transform="rotate(90) translate(36 -43)">
    <use xlink:href="#rim"/>
    <path pointer-events="none" fill="none" stroke="white" stroke-width="1.5" d="M0,-3.0v7 M-2.5,-0.5L0,-3.0L2.5,-0.5"/>
  </g>
  <g id="arrowDown" transform="rotate(180) translate(-30 -48)">
    <use xlink:href="#rim"/>
    <path pointer-events="none" fill="none" stroke="white" stroke-width="1.5" d="M0,-3.0v7 M-2.5,-0.5L0,-3.0L2.5,-0.5"/>
  </g>
  <g id="arrowLeft" transform="rotate(270) translate(-36 17)">
    <use xlink:href="#rim"/>
    <path pointer-events="none" fill="none" stroke="white" stroke-width="1.5" d="M0,-3.0v7 M-2.5,-0.5L0,-3.0L2.5,-0.5"/>
  </g>
  <g id="resetDef">
    <use xlink:href="#rim2" fill="#404040"><set attributeName="fill" to="#808080" begin="reset.mouseover" end="reset.mouseout"/></use>
  </g>
</defs>
<script type="application/ecmascript">
var viewWidth = 477;
var viewHeight = 737;
</script>
<script type="application/ecmascript" xlink:href="svg.min.js"/>
<svg id="graph" class="graph">
<g id="viewport">
<title>AutoExposure</title>
<g id="clust1" class="cluster">
<title>cluster_gpu</title>
<path fill="transparent" stroke="#7aa2f7" stroke-width="1.5" d="M20,-8C20,-8 314,-8 314,-8 320,-8 326,-14 326,-20 326,-20 326,-524.5 326,-524.5 326,-530.5 320,-536.5 314,-536.5 314,-536.5 20,-536.5 20,-536.5 14,-536.5 8,-530.5 8,-524.5 8,-524.5 8,-20 8,-20 8,-14 14,-8 20,-8"/>
<text text-anchor="middle" x="167" y="-518.1" font-family="Helvetica Bold,Arial,sans-serif" font-size="18.00" fill="#7aa2f7">GPU Pipeline</text>
</g>
<!-- Scene -->
<g id="node1" class="node">
<title>Scene</title>
<polygon fill="none" stroke="#e0af68" stroke-width="2" points="235.5,-488.5 140.5,-488.5 140.5,-444.5 241.5,-444.5 241.5,-482.5 235.5,-488.5"/>
<polyline fill="none" stroke="#e0af68" stroke-width="2" points="235.5,-488.5 235.5,-482.5 "/>
<polyline fill="none" stroke="#e0af68" stroke-width="2" points="241.5,-482.5 235.5,-482.5 "/>
<text text-anchor="middle" x="191" y="-471.7" font-family="Helvetica,Arial,sans-serif" font-size="16.00" fill="#e0af68">Scene HDR</text>
<text text-anchor="middle" x="191" y="-453.7" font-family="Helvetica,Arial,sans-serif" font-size="16.00" fill="#e0af68">(Full Res)</text>
</g>
<!-- Downsample -->
<g id="node2" class="node">
<title>Downsample</title>
<path fill="none" stroke="#7dcfff" stroke-width="2" d="M190,-388.5C190,-388.5 48,-388.5 48,-388.5 42,-388.5 36,-382.5 36,-376.5 36,-376.5 36,-356.5 36,-356.5 36,-350.5 42,-344.5 48,-344.5 48,-344.5 190,-344.5 190,-344.5 196,-344.5 202,-350.5 202,-356.5 202,-356.5 202,-376.5 202,-376.5 202,-382.5 196,-388.5 190,-388.5"/>
<text text-anchor="middle" x="119" y="-371.7" font-family="Helvetica,Arial,sans-serif" font-size="16.00" fill="#7dcfff">Downsample Shader</text>
<text text-anchor="middle" x="119" y="-353.7" font-family="Helvetica,Arial,sans-serif" font-size="16.00" fill="#7dcfff">(64x64 Log Avg)</text>
</g>
<!-- Scene&#45;&gt;Downsample -->
<g id="edge1" class="edge">
<title>Scene&#45;&gt;Downsample</title>
<path fill="none" stroke="#565f89" stroke-width="1.2" d="M175.31,-444.48C170.99,-438.66 166.3,-432.34 162,-426.5 154.49,-416.3 146.29,-405.07 139.08,-395.17"/>
<polygon fill="#565f89" stroke="#565f89" stroke-width="1.2" points="141.25,-393.38 134.28,-388.56 136.72,-396.68 141.25,-393.38"/>
<text text-anchor="middle" x="192.5" y="-412.1" font-family="Helvetica,Arial,sans-serif" font-size="18.00" fill="#9aa5ce">Reduce</text>
</g>
<!-- Final -->
<g id="node5" class="node">
<title>Final</title>
<path fill="none" stroke="#9ece6a" stroke-width="2" d="M282,-72C282,-72 176,-72 176,-72 170,-72 164,-66 164,-60 164,-60 164,-40 164,-40 164,-34 170,-28 176,-28 176,-28 282,-28 282,-28 288,-28 294,-34 294,-40 294,-40 294,-60 294,-60 294,-66 288,-72 282,-72"/>
<text text-anchor="middle" x="229" y="-55.2" font-family="Helvetica,Arial,sans-serif" font-size="16.00" fill="#9ece6a">Apply Exposure</text>
<text text-anchor="middle" x="229" y="-37.2" font-family="Helvetica,Arial,sans-serif" font-size="16.00" fill="#9ece6a">(PostProcess)</text>
</g>
<!-- Scene&#45;&gt;Final -->
<g id="edge6" class="edge">
<title>Scene&#45;&gt;Final</title>
<path fill="none" stroke="#7aa2f7" stroke-width="2.5" d="M211.16,-444.44C215.59,-438.94 219.88,-432.77 223,-426.5 271.24,-329.46 268.92,-296.64 276,-188.5 278.88,-144.59 287.41,-128.44 266,-90 263.73,-85.93 260.94,-81.96 257.91,-78.21"/>
<polygon fill="#7aa2f7" stroke="#7aa2f7" stroke-width="2.5" points="260,-76.34 252.65,-72.12 255.76,-80 260,-76.34"/>
<text text-anchor="middle" x="311" y="-262.1" font-family="Helvetica,Arial,sans-serif" font-size="18.00" fill="#9aa5ce">LDR Path</text>
</g>
<!-- Compute -->
<g id="node3" class="node">
<title>Compute</title>
<path fill="none" stroke="#f7768e" stroke-width="2" d="M180,-288.5C180,-288.5 40,-288.5 40,-288.5 34,-288.5 28,-282.5 28,-276.5 28,-276.5 28,-256.5 28,-256.5 28,-250.5 34,-244.5 40,-244.5 40,-244.5 180,-244.5 180,-244.5 186,-244.5 192,-250.5 192,-256.5 192,-256.5 192,-276.5 192,-276.5 192,-282.5 186,-288.5 180,-288.5"/>
<text text-anchor="middle" x="110" y="-271.7" font-family="Helvetica,Arial,sans-serif" font-size="16.00" fill="#f7768e">Adaptation Compute</text>
<text text-anchor="middle" x="110" y="-253.7" font-family="Helvetica,Arial,sans-serif" font-size="16.00" fill="#f7768e">(1x1 Thread)</text>
</g>
<!-- Downsample&#45;&gt;Compute -->
<g id="edge2" class="edge">
<title>Downsample&#45;&gt;Compute</title>
<path fill="none" stroke="#565f89" stroke-width="1.2" d="M116.07,-344.48C115.32,-338.66 114.57,-332.34 114,-326.5 113.05,-316.78 112.25,-306.14 111.63,-296.6"/>
<polygon fill="#565f89" stroke="#565f89" stroke-width="1.2" points="114.42,-296.36 111.12,-288.55 108.83,-296.71 114.42,-296.36"/>
<text text-anchor="middle" x="168.5" y="-312.1" font-family="Helvetica,Arial,sans-serif" font-size="18.00" fill="#9aa5ce">Current Luma</text>
</g>
<!-- History -->
<g id="node4" class="node">
<title>History</title>
<path fill="none" stroke="#bb9af7" stroke-width="2" d="M266.5,-183.21C266.5,-186.27 234.9,-188.75 196,-188.75 157.1,-188.75 125.5,-186.27 125.5,-183.21 125.5,-183.21 125.5,-133.29 125.5,-133.29 125.5,-130.23 157.1,-127.75 196,-127.75 234.9,-127.75 266.5,-130.23 266.5,-133.29 266.5,-133.29 266.5,-183.21 266.5,-183.21"/>
<path fill="none" stroke="#bb9af7" stroke-width="2" d="M266.5,-183.21C266.5,-180.15 234.9,-177.66 196,-177.66 157.1,-177.66 125.5,-180.15 125.5,-183.21"/>
<text text-anchor="middle" x="196" y="-163.45" font-family="Helvetica,Arial,sans-serif" font-size="16.00" fill="#bb9af7">History Texture</text>
<text text-anchor="middle" x="196" y="-145.45" font-family="Helvetica,Arial,sans-serif" font-size="16.00" fill="#bb9af7">(Previous Frame)</text>
</g>
<!-- Compute&#45;&gt;History -->
<g id="edge4" class="edge">
<title>Compute&#45;&gt;History</title>
<path fill="none" stroke="#565f89" stroke-width="1.2" d="M61.34,-244.3C44.65,-233.97 32.51,-220.72 43,-206.5 60.35,-182.98 89.25,-170.81 117.28,-164.64"/>
<polygon fill="#565f89" stroke="#565f89" stroke-width="1.2" points="117.87,-167.37 125.16,-163.05 116.76,-161.89 117.87,-167.37"/>
<text text-anchor="middle" x="110.5" y="-212.1" font-family="Helvetica,Arial,sans-serif" font-size="18.00" fill="#9aa5ce">Write New (Lerp)</text>
</g>
<!-- History&#45;&gt;Compute -->
<g id="edge3" class="edge">
<title>History&#45;&gt;Compute</title>
<path fill="none" stroke="#565f89" stroke-width="1.2" stroke-dasharray="5,2" d="M195.31,-188.64C193.72,-201.32 190.05,-215.69 182,-226.5 178.38,-231.36 173.97,-235.68 169.14,-239.51"/>
<polygon fill="#565f89" stroke="#565f89" stroke-width="1.2" points="167.16,-237.49 162.31,-244.44 170.44,-242.03 167.16,-237.49"/>
<text text-anchor="middle" x="229" y="-212.1" font-family="Helvetica,Arial,sans-serif" font-size="18.00" fill="#9aa5ce">Read Old</text>
</g>
<!-- History&#45;&gt;Final -->
<g id="edge5" class="edge">
<title>History&#45;&gt;Final</title>
<path fill="none" stroke="#565f89" stroke-width="1.2" d="M205.1,-127.94C209.74,-113.01 215.36,-94.92 219.98,-80.03"/>
<polygon fill="#565f89" stroke="#565f89" stroke-width="1.2" points="222.74,-80.61 222.44,-72.13 217.39,-78.94 222.74,-80.61"/>
<text text-anchor="middle" x="239" y="-95.6" font-family="Helvetica,Arial,sans-serif" font-size="18.00" fill="#9aa5ce">Fetch</text>
</g>
</g>
</svg>

<g id="navigator" transform="translate(0 0)" fill="#404254">
  <rect fill="#f2f5e9" fill-opacity="0.5" stroke="#606060" stroke-width=".5" x="0" y="0" width="60" height="60"/>
  <use id="zoomplus" xlink:href="#zoomPlus" x="17" y="9" onmousedown="handleZoom(evt,'in')"/>
  <use id="zoomminus" xlink:href="#zoomMin" x="42" y="9" onmousedown="handleZoom(evt,'out')"/>
  <use id="reset" xlink:href="#resetDef" x="30" y="36" onmousedown="handleReset()"/>
   <use id="arrowup" xlink:href="#arrowUp" x="0" y="0" onmousedown="handlePan(0,-1)"/>
  <use id="arrowright" xlink:href="#arrowRight" x="0" y="0" onmousedown="handlePan(1,0)"/>
  <use id="arrowdown" xlink:href="#arrowDown" x="0" y="0" onmousedown="handlePan(0,1)"/>
  <use id="arrowleft" xlink:href="#arrowLeft" x="0" y="0" onmousedown="handlePan(-1,0)"/>
</g>
<svg viewBox="0 0 15 15" width="100%" height="30px" preserveAspectRatio="xMaxYMin meet">
 <g id="arrow_out" transform="scale(0.3 0.3)">
  <a xlink:href="dot_inline_dotgraph_5_org.svg" target="_base">
   <rect id="button" ry="5" rx="5" y="6" x="6" height="38" width="38"
        fill="#f2f5e9" fill-opacity="0.5" stroke="#606060" stroke-width="1.0"/>
   <path id="arrow"
     d="M 11.500037,31.436501 C 11.940474,20.09759 22.043105,11.32322 32.158766,21.979434 L 37.068811,17.246167 C 37.068811,17.246167 37.088388,32 37.088388,32 L 22.160133,31.978069 C 22.160133,31.978069 26.997745,27.140456 26.997745,27.140456 C 18.528582,18.264221 13.291696,25.230495 11.500037,31.436501 z"
     style="fill:#404040;"/>
  </a>
 </g>
</svg>

<style type='text/css'>
<![CDATA[
[data-mouse-over-selected='false'] { opacity: 0.7; }
[data-mouse-over-selected='true']  { opacity: 1.0; }
]]>
</style>
<script type="application/ecmascript"><![CDATA[
document.addEventListener('DOMContentLoaded', (event) => {
  highlightEdges();
  highlightAdjacentNodes();
});
]]></script>
</svg>
